<?xml version="1.0" encoding="UTF-8" standalone="no"?>
<!DOCTYPE svg PUBLIC "-//W3C//DTD SVG 1.1//EN" "http://www.w3.org/Graphics/SVG/1.1/DTD/svg11.dtd">
<svg width="100%" height="100%" viewBox="0 0 3071 2953" version="1.1" xmlns="http://www.w3.org/2000/svg" xmlns:xlink="http://www.w3.org/1999/xlink" xml:space="preserve" xmlns:serif="http://www.serif.com/" style="fill-rule:evenodd;clip-rule:evenodd;stroke-linecap:round;stroke-linejoin:round;stroke-miterlimit:1.5;">
    <g transform="matrix(1,0,0,1,-84.4137,-35.8413)">
        <rect x="-85.654" y="-37.9" width="3411" height="3100.24" style="fill:rgb(16,21,65);stroke:black;stroke-width:6.25px;"/>
    </g>
    <rect x="-85.654" y="-37.9" width="3411" height="3100.24" style="fill:url(#_Radial1);stroke:black;stroke-width:6.25px;"/>
    <g transform="matrix(5.29332,0,0,-5.29332,1249.98,4046.92)">
        <g id="g2993">
            <path id="path3660" d="M128.378,463.628L128.378,463.61C128.378,423.36 95.428,390.239 55.386,390.239C15.344,390.239 -17.606,423.36 -17.606,463.61L-17.606,463.628C-17.606,503.878 15.344,536.999 55.386,536.999C95.428,536.999 128.378,503.878 128.378,463.628Z" style="fill:white;fill-rule:nonzero;"/>
            <g id="g3003">
                <path id="path3005" d="M108.127,572.269C108.827,571.669 109.127,570.769 109.127,569.869C109.127,568.969 108.827,568.069 108.127,567.469C107.527,566.769 106.627,566.469 105.727,566.469C104.727,566.469 103.927,566.769 103.227,567.469C102.627,568.069 102.227,568.969 102.227,569.869C102.227,570.769 102.627,571.669 103.227,572.269C103.927,572.969 104.727,573.269 105.727,573.269C106.627,573.269 107.527,572.969 108.127,572.269M109.127,587.669C110.127,586.669 110.727,585.269 110.727,583.769C110.727,582.269 110.127,581.069 109.127,579.969C108.127,578.969 106.727,578.369 105.227,578.369C103.727,578.369 102.527,578.969 101.427,579.969C100.427,581.069 99.827,582.269 99.827,583.769C99.827,585.269 100.427,586.669 101.427,587.669C102.527,588.669 103.727,589.269 105.227,589.269C106.727,589.269 108.127,588.669 109.127,587.669M129.827,596.869C130.827,600.469 131.527,602.669 131.927,603.669C131.627,603.569 131.527,603.269 131.227,603.069C123.927,595.669 115.027,592.069 104.527,592.069C101.927,592.069 99.427,592.269 97.027,592.669C96.027,592.969 95.027,593.169 94.027,593.469L80.927,596.469C79.627,596.969 78.427,597.569 77.127,598.069C75.227,598.969 73.627,599.869 72.427,600.769C72.627,600.069 73.027,599.169 73.627,597.969C74.327,596.269 74.827,595.169 75.027,594.669C75.627,593.069 77.727,591.069 81.527,588.569C82.727,587.669 83.927,586.969 84.927,586.169C86.127,585.669 86.727,585.269 87.027,585.169C87.627,584.669 88.327,584.269 88.927,583.869L89.227,583.669L89.427,583.569C91.127,582.069 92.627,580.369 93.727,578.469C94.027,577.869 94.927,576.169 96.427,573.169C97.027,572.069 97.627,570.269 98.527,567.969C99.427,565.669 100.127,563.969 100.727,562.669C101.327,561.769 101.927,560.969 102.527,560.169C103.127,559.469 104.027,558.769 104.927,558.169C106.227,557.069 107.627,556.269 109.127,555.669C109.227,556.469 109.427,557.169 109.627,558.069C109.727,558.069 109.727,558.169 109.727,558.269C110.527,561.269 111.927,564.669 114.127,568.269C118.327,574.269 121.327,579.169 123.127,582.669C124.727,585.669 126.027,588.069 126.827,589.669C128.227,592.669 129.227,595.069 129.827,596.869" style="fill:rgb(22,147,0);fill-rule:nonzero;"/>
            </g>
            <g id="g3007">
                <path id="path3009" d="M110.727,583.769C110.727,585.269 110.127,586.669 109.127,587.669C108.127,588.669 106.727,589.269 105.227,589.269C103.727,589.269 102.527,588.669 101.427,587.669C100.427,586.669 99.827,585.269 99.827,583.769C99.827,582.269 100.427,581.069 101.427,579.969C102.527,578.969 103.727,578.369 105.227,578.369C106.727,578.369 108.127,578.969 109.127,579.969C110.127,581.069 110.727,582.269 110.727,583.769" style="fill:rgb(19,193,0);fill-rule:nonzero;"/>
            </g>
            <g id="g3011">
                <path id="path3013" d="M109.127,569.869C109.127,570.769 108.827,571.669 108.127,572.269C107.527,572.969 106.627,573.269 105.727,573.269C104.727,573.269 103.927,572.969 103.227,572.269C102.627,571.669 102.227,570.769 102.227,569.869C102.227,568.969 102.627,568.069 103.227,567.469C103.927,566.769 104.727,566.469 105.727,566.469C106.627,566.469 107.527,566.769 108.127,567.469C108.827,568.069 109.127,568.969 109.127,569.869" style="fill:rgb(19,193,0);fill-rule:nonzero;"/>
            </g>
            <g id="g3015">
                <path id="path3017" d="M-25.873,477.169C-25.773,477.269 -25.673,477.269 -25.573,477.269C-25.373,477.269 -25.073,477.269 -24.873,477.169L-25.873,477.169ZM32.127,513.069L32.127,512.169L32.027,512.169C31.827,511.569 31.527,510.769 31.027,509.969C30.427,509.069 30.027,508.269 29.727,507.969C28.627,506.169 26.827,503.469 24.227,499.669C22.627,497.269 20.027,494.569 16.427,491.469L16.227,491.269C16.027,491.169 15.627,490.969 15.427,490.769C13.727,489.569 12.027,488.469 10.227,487.569C9.427,487.069 8.627,486.669 7.727,486.269C5.227,485.269 2.827,484.269 0.427,483.269C-0.173,482.869 -1.073,482.469 -2.473,482.069C-2.573,481.969 -3.473,481.769 -5.073,481.369C-5.273,481.269 -5.473,481.269 -5.673,481.169C-6.773,480.869 -7.573,480.669 -8.373,480.369C-8.573,479.769 -8.773,479.069 -8.773,478.169C-9.573,478.469 -10.273,478.669 -10.773,478.669C-11.773,478.969 -12.573,479.069 -13.073,478.769L-13.373,478.769C-13.673,478.869 -13.973,478.969 -14.273,478.969L-14.373,478.969C-14.373,479.069 -14.473,479.069 -14.473,479.069L-14.873,479.069C-15.373,479.069 -15.873,479.169 -16.273,479.169L-16.473,479.169C-16.773,479.169 -17.073,479.169 -17.373,479.269C-18.273,479.369 -19.073,479.469 -19.873,479.669L-20.673,479.669C-21.273,479.769 -21.773,479.869 -22.273,479.969C-25.973,480.469 -28.473,480.769 -29.773,480.969L-34.473,480.969C-37.073,481.169 -39.073,481.469 -40.373,481.569L-40.873,481.569L-40.873,481.669L-30.673,481.669C-30.373,481.669 -29.973,481.769 -29.473,481.869C-28.873,481.969 -27.773,481.969 -25.973,482.069C-22.173,482.369 -18.773,482.769 -15.573,483.269C-14.273,483.569 -12.873,483.769 -11.673,484.069C-10.373,484.269 -8.773,484.669 -6.873,485.169C-5.973,485.469 -5.073,485.769 -4.073,486.069L-3.873,486.069C-2.973,486.369 -1.473,486.969 0.627,487.669C2.627,488.369 4.127,488.969 5.027,489.369C7.127,490.269 9.227,491.469 11.327,492.669C12.027,493.169 12.727,493.669 13.427,494.069C16.127,495.769 18.527,497.569 20.227,499.169C23.127,501.769 26.127,505.169 29.527,509.369C29.927,509.869 30.527,510.669 31.427,511.969C31.627,512.269 31.927,512.669 32.127,513.069M-60.373,442.569C-60.273,442.769 -60.273,442.969 -60.273,443.169C-60.273,444.069 -60.373,444.569 -60.373,444.569C-60.373,446.069 -59.573,447.369 -58.073,448.569C-57.173,449.369 -55.873,450.069 -54.373,450.869C-53.073,451.869 -50.773,452.969 -47.073,454.069C-43.373,455.169 -40.073,455.969 -37.173,456.369C-34.073,456.869 -30.373,457.569 -25.773,458.369C-23.473,458.669 -20.873,459.069 -17.873,459.369C-17.073,459.369 -16.273,459.469 -15.373,459.569C-12.773,459.769 -9.773,460.069 -6.473,460.169L8.827,460.169L9.227,460.369L14.827,460.369L15.227,460.469L24.027,460.469C26.827,460.369 30.127,459.869 34.027,458.969C35.127,458.669 36.227,458.469 37.127,458.169L25.027,458.169L23.527,457.969L19.527,457.969C16.327,457.869 13.427,457.569 10.727,457.169C10.327,457.169 9.927,457.169 9.427,457.069L7.027,457.069C5.227,456.669 4.127,456.369 3.527,456.169C3.427,456.169 3.327,456.169 3.227,456.069C-0.073,455.469 -3.073,454.769 -5.773,454.069L-5.873,454.069C-7.273,453.669 -8.473,453.169 -9.573,452.869C-10.373,452.469 -11.073,452.169 -11.773,451.869C-13.473,450.969 -15.173,450.169 -16.573,449.469C-18.073,448.669 -19.373,448.169 -20.573,447.569L-20.373,447.569C-21.673,446.869 -22.773,446.369 -23.673,445.769C-27.373,443.669 -30.273,441.969 -32.273,440.869C-34.873,439.969 -37.873,439.169 -40.873,438.269C-42.373,437.869 -43.773,437.569 -44.973,437.169C-46.973,436.969 -48.273,436.869 -48.773,436.869C-53.373,436.869 -56.873,438.169 -59.373,440.869C-59.673,441.169 -59.973,441.669 -60.273,442.369C-60.273,442.369 -60.273,442.569 -60.373,442.569M-64.973,524.769L-64.973,526.069C-64.973,527.569 -64.373,528.969 -63.273,530.169C-61.873,531.669 -59.573,532.669 -56.573,532.969L-53.873,532.969C-52.373,532.969 -50.873,532.669 -49.573,532.169C-47.373,531.569 -45.273,530.469 -43.273,528.769C-42.973,528.569 -41.773,527.169 -39.473,524.769C-38.773,524.069 -37.873,523.169 -36.873,522.169C-36.473,521.569 -35.873,521.069 -35.373,520.469C-35.173,520.169 -34.973,520.069 -34.773,519.769C-34.373,519.469 -33.973,519.169 -33.573,518.869C-33.673,518.769 -33.673,518.669 -33.673,518.669C-31.473,516.569 -29.373,514.769 -27.173,513.469C-26.373,512.769 -25.373,511.969 -23.973,511.169C-23.273,510.669 -22.473,510.169 -21.773,509.769C-21.373,509.669 -21.073,509.669 -20.873,509.569C-19.073,508.469 -17.373,507.569 -15.873,506.769C-16.273,506.869 -16.573,506.769 -16.873,506.669C-16.373,506.669 -15.873,506.569 -15.273,506.569C-12.973,505.469 -10.873,504.669 -8.973,504.269C-8.073,503.969 -7.273,503.669 -6.473,503.569C-5.373,503.169 -4.373,503.069 -3.573,503.169L-3.073,503.169C-2.873,503.069 -2.573,503.069 -2.373,503.069L0.227,503.069C0.327,502.969 0.427,502.969 0.527,502.969L0.127,502.969C0.127,502.969 0.027,502.969 0.027,502.869C-0.273,502.869 -0.473,502.869 -0.773,502.769C-1.273,502.769 -1.873,502.669 -2.273,502.669C-2.373,502.569 -2.573,502.569 -2.773,502.569L-8.373,502.569C-9.873,502.669 -11.373,502.969 -12.873,503.069C-19.873,503.869 -25.773,504.669 -30.473,505.569C-35.373,506.369 -40.073,507.469 -44.673,508.669C-50.973,510.469 -55.473,512.669 -58.073,515.169C-58.373,515.469 -58.573,515.769 -58.873,516.069C-59.273,516.269 -59.473,516.569 -59.873,516.769C-62.973,519.369 -64.673,521.969 -64.873,524.369C-64.873,524.569 -64.873,524.669 -64.973,524.769ZM-57.273,570.169C-57.073,570.069 -56.973,569.969 -56.873,569.969C-56.873,569.769 -56.873,569.669 -56.973,569.569C-57.073,569.769 -57.173,569.969 -57.273,570.169M42.627,540.069C42.527,540.169 42.427,540.269 42.327,540.469C41.427,541.769 40.427,543.569 39.127,545.769C33.627,556.569 29.927,567.569 28.027,578.769C45.227,576.169 62.627,576.169 79.827,578.769C77.927,567.569 74.127,556.569 68.627,545.769C67.427,543.569 66.427,541.769 65.527,540.469C65.427,540.269 65.327,540.169 65.227,540.069C62.627,535.969 58.927,533.769 54.327,533.469L53.527,533.469L53.527,533.569C48.927,533.869 45.227,536.069 42.627,540.069M30.127,540.669C30.227,541.069 30.427,541.369 30.427,541.769C30.527,541.869 30.627,542.169 30.627,542.669C30.927,541.669 31.227,540.669 31.527,540.069C32.727,537.469 34.327,534.969 36.127,532.669C41.227,526.269 47.027,522.969 53.527,522.669L54.327,522.669C60.927,522.969 66.627,526.269 71.627,532.669C73.527,534.969 75.027,537.469 76.227,540.069C76.627,540.669 76.927,541.669 77.127,542.669C77.227,542.169 77.227,541.869 77.427,541.769C77.427,541.369 77.527,541.069 77.627,540.669C78.727,535.169 77.627,529.869 74.127,524.669C70.627,519.369 65.727,516.169 59.427,515.169C57.727,514.769 56.127,514.669 54.327,514.669L53.527,514.669C51.727,514.669 50.027,514.769 48.427,515.169C42.027,516.169 37.127,519.369 33.627,524.669C30.227,529.869 29.127,535.169 30.127,540.669M53.427,641.469L53.627,641.469L53.427,641.469ZM27.927,646.769C30.627,643.269 32.527,639.369 33.327,635.069L33.927,629.469L33.927,628.969L33.327,623.269C32.527,618.769 30.727,614.769 27.927,611.169C27.127,610.169 26.227,609.169 25.227,608.169C20.127,603.069 14.127,600.169 7.127,599.669C6.227,599.669 5.327,599.569 4.527,599.569C2.727,599.569 1.127,599.669 -0.573,599.969C-4.273,600.569 -7.573,601.769 -10.773,603.669C-12.773,604.969 -14.573,606.469 -16.373,608.169C-16.473,608.369 -16.773,608.569 -16.873,608.769C-17.473,609.469 -18.073,610.069 -18.573,610.769C-21.173,613.869 -22.873,617.369 -23.873,621.169C-24.173,622.169 -24.373,623.069 -24.473,623.969L-24.873,628.969L-24.873,629.469L-24.373,635.169C-23.973,637.169 -23.373,638.969 -22.573,640.769C-21.073,644.069 -18.973,647.069 -16.373,649.769C-13.473,652.669 -10.373,654.769 -6.873,656.169C-6.173,656.469 -5.373,656.769 -4.573,656.969C-1.773,657.969 1.227,658.369 4.527,658.369C12.627,658.369 19.527,655.469 25.227,649.769C25.427,649.669 25.527,649.569 25.627,649.469C26.427,648.669 27.127,647.769 27.927,646.769M117.427,452.869C116.227,453.169 115.027,453.669 113.627,454.069C111.027,454.769 107.927,455.469 104.527,456.069C104.527,456.169 104.427,456.169 104.227,456.169C103.727,456.369 102.627,456.669 100.827,457.069L98.427,457.069C95.327,457.569 92.027,457.869 88.327,457.969L84.327,457.969L82.827,458.169L70.627,458.169C71.627,458.469 72.627,458.669 73.827,458.969C77.627,459.869 81.027,460.369 83.727,460.469L92.527,460.469L93.027,460.369L98.527,460.369L99.027,460.169L114.327,460.169C117.627,460.069 120.527,459.769 123.227,459.569C124.927,459.369 126.427,459.169 127.927,459.069C130.027,458.869 131.927,458.669 133.627,458.369C138.127,457.569 141.927,456.869 145.027,456.369C147.927,455.969 151.227,455.169 154.927,454.069C158.527,452.969 160.927,451.869 162.127,450.869C163.727,450.069 165.027,449.369 165.927,448.569C167.427,447.369 168.127,446.069 168.127,444.569C168.127,444.569 168.127,444.069 168.027,443.169C168.127,442.969 168.127,442.769 168.127,442.569C168.127,442.569 168.127,442.369 168.027,442.369C167.727,441.669 167.527,441.169 167.127,440.869C164.627,438.169 161.127,436.869 156.627,436.869C156.127,436.869 154.827,436.969 152.727,437.169C151.527,437.569 150.127,437.869 148.627,438.269C145.627,439.169 142.727,439.969 140.127,440.869C138.027,441.969 135.127,443.669 131.527,445.769C130.627,446.369 129.527,446.869 128.127,447.569L128.427,447.569C127.827,447.869 127.127,448.169 126.527,448.469C124.527,449.469 122.127,450.569 119.527,451.869C118.927,452.169 118.227,452.469 117.427,452.869M132.627,477.169C132.927,477.269 133.127,477.269 133.427,477.269C133.527,477.269 133.627,477.269 133.627,477.169L132.627,477.169ZM92.027,463.369C94.127,462.669 95.627,462.069 96.527,461.769L96.727,461.769C97.727,461.469 98.527,461.169 99.427,460.869C101.427,460.369 102.927,459.969 104.327,459.769C106.227,459.369 108.327,458.969 110.527,458.669C113.027,458.369 115.727,457.969 118.627,457.769C120.327,457.669 121.427,457.669 122.127,457.569C122.527,457.469 122.927,457.369 123.327,457.369L133.427,457.369L133.427,457.269L132.927,457.269C146.927,481.469 144.927,481.169 142.227,480.969L137.527,480.969C136.127,480.669 133.027,480.269 128.327,479.669L127.627,479.669C127.227,479.569 126.927,479.469 126.527,479.469C125.227,479.269 123.927,479.169 122.327,479.069C122.227,479.069 122.227,479.069 122.127,478.969L122.027,478.969C121.727,478.969 121.527,478.869 121.127,478.769L120.927,478.769C120.627,478.969 120.227,478.969 119.727,478.969C119.427,478.869 119.027,478.769 118.527,478.669C118.027,478.669 117.427,478.469 116.627,478.169C116.527,478.969 116.427,479.569 116.327,480.069C115.027,480.569 113.927,480.969 113.127,481.269C112.427,481.569 111.627,481.769 110.927,482.069C107.327,483.269 103.727,484.769 100.127,486.269C97.427,487.569 94.827,489.069 92.427,490.769C92.127,490.969 91.827,491.169 91.527,491.269L91.427,491.469C87.827,494.569 85.227,497.269 83.627,499.669C81.027,503.469 79.127,506.169 78.127,507.969C77.827,508.269 77.427,509.069 76.827,509.969C76.327,510.769 76.027,511.569 75.727,512.169C75.727,512.469 75.627,512.769 75.627,513.069C75.927,512.669 76.127,512.269 76.427,511.969C77.227,510.669 77.927,509.869 78.327,509.369C81.627,505.169 84.627,501.769 87.527,499.169C89.327,497.569 91.627,495.769 94.427,494.069C97.127,492.169 100.027,490.669 102.727,489.369C103.727,488.969 105.227,488.369 107.227,487.669M171.127,530.169C172.227,528.969 172.727,527.569 172.727,526.069L172.727,524.769C172.727,524.669 172.627,524.569 172.627,524.369C172.527,521.969 170.827,519.369 167.627,516.769C167.327,516.569 167.027,516.269 166.627,516.069C166.427,515.769 166.127,515.469 165.927,515.169C163.327,512.669 158.827,510.469 152.527,508.669C147.927,507.469 143.227,506.369 138.327,505.569C133.627,504.669 127.627,503.869 120.627,503.069C119.527,502.969 118.227,502.769 117.127,502.669C116.727,502.669 116.527,502.669 116.127,502.569L110.527,502.569C109.927,502.669 109.227,502.669 108.527,502.769C108.127,502.869 107.627,502.969 107.327,502.969C107.427,502.969 107.527,502.969 107.627,503.069L108.127,503.069C108.427,502.969 108.627,502.969 108.627,502.869L109.227,502.869C109.627,502.969 110.427,502.969 111.227,502.969C111.127,502.969 111.127,502.969 111.127,502.869C113.127,503.069 114.727,503.269 116.227,503.569L116.527,503.569C118.927,503.669 122.427,504.769 127.127,507.169C131.427,509.169 134.627,511.169 136.927,513.069C139.227,514.969 141.327,516.869 143.127,518.769C145.227,521.169 146.627,523.069 147.027,524.469C147.127,524.669 147.127,524.669 147.227,524.769L147.327,524.769C147.527,525.069 147.627,525.269 148.027,525.569L148.127,525.569L148.127,525.669C149.827,527.569 150.827,528.569 151.127,528.769C153.027,530.469 155.127,531.569 157.427,532.169C158.727,532.669 160.127,532.969 161.627,532.969L164.427,532.969C167.427,532.669 169.627,531.669 171.127,530.169M164.627,569.969C164.827,569.969 164.927,570.069 165.027,570.169C165.027,569.969 164.927,569.769 164.727,569.569C164.727,569.669 164.727,569.769 164.627,569.969M130.427,640.769C131.127,638.969 131.727,637.169 132.127,635.169L132.727,629.469L132.727,628.969L132.327,623.969C132.127,623.069 132.027,622.169 131.727,621.169C130.727,617.369 129.027,613.869 126.427,610.769C125.927,610.069 125.327,609.469 124.727,608.769C124.527,608.569 124.327,608.369 124.127,608.169C122.427,606.469 120.527,604.969 118.527,603.669C115.427,601.769 112.027,600.569 108.427,599.969C106.727,599.669 105.127,599.569 103.327,599.569C102.527,599.569 101.627,599.669 100.727,599.669C93.627,600.169 87.627,603.069 82.527,608.169C81.627,609.169 80.627,610.169 79.927,611.169C77.127,614.769 75.227,618.769 74.527,623.269L73.927,628.969L73.927,629.469L74.527,635.069C75.327,639.369 77.127,643.269 79.927,646.769C80.627,647.769 81.427,648.669 82.227,649.469L82.527,649.769C88.227,655.469 95.127,658.369 103.327,658.369C106.527,658.369 109.527,657.969 112.427,656.969C113.127,656.769 114.027,656.469 114.727,656.169C118.127,654.769 121.227,652.669 124.127,649.769C126.827,647.069 128.927,644.069 130.427,640.769M131.227,603.069C131.527,603.269 131.627,603.569 131.927,603.669C138.827,610.969 142.227,619.669 142.227,629.669C142.227,640.069 138.627,648.969 131.227,656.269C124.127,663.369 115.627,666.969 105.627,667.269L104.427,667.269C95.727,667.269 87.527,664.969 79.927,660.469C72.927,656.369 67.127,652.269 62.527,648.269C56.727,643.269 51.027,643.269 45.227,648.269C40.727,652.269 34.927,656.369 27.927,660.469C20.227,664.969 12.127,667.269 3.427,667.269L2.127,667.269C-7.773,666.969 -16.373,663.369 -23.373,656.269C-30.773,648.969 -34.473,640.069 -34.473,629.669C-34.473,619.669 -30.973,610.969 -24.073,603.669C-23.873,603.569 -23.673,603.269 -23.373,603.069C-16.073,595.669 -7.173,592.069 3.227,592.069C5.927,592.069 8.427,592.269 10.827,592.669C11.827,592.969 12.827,593.169 13.827,593.469L26.927,596.469C28.127,596.969 29.427,597.569 30.627,598.069C32.527,598.969 34.127,599.869 35.427,600.769C35.127,600.069 34.727,599.169 34.227,597.969C33.527,596.269 33.027,595.169 32.827,594.669C32.227,593.069 30.127,591.069 26.327,588.569C25.127,587.669 23.927,586.969 22.927,586.169C21.727,585.669 21.027,585.269 20.727,585.169C20.127,584.669 19.527,584.269 18.927,583.869L18.627,583.669C18.527,583.669 18.427,583.569 18.427,583.569C16.627,582.069 15.227,580.369 14.127,578.469C13.727,577.869 12.927,576.169 11.427,573.169C10.827,572.069 10.127,570.269 9.227,567.969C8.427,565.669 7.627,563.969 7.027,562.669C6.527,561.769 5.927,560.969 5.227,560.169C4.627,559.469 3.827,558.769 2.927,558.169C1.527,557.069 0.127,556.269 -1.273,555.669C-1.573,555.569 -1.973,555.369 -2.373,555.169C-11.773,551.969 -19.573,553.269 -26.073,559.369C-26.573,559.769 -27.173,560.269 -27.673,560.769C-30.373,563.469 -34.373,569.269 -39.773,578.269C-45.273,587.469 -50.473,594.469 -55.373,599.469C-62.373,606.769 -70.873,612.669 -80.873,616.969C-88.473,619.069 -96.373,619.069 -104.573,616.969C-118.273,613.769 -128.873,606.969 -136.373,596.669C-140.873,590.669 -143.873,584.269 -145.173,577.869C-145.973,574.669 -146.373,571.169 -146.373,567.569L-146.373,561.269C-146.273,560.269 -145.473,557.469 -144.073,552.769C-143.473,550.469 -141.673,547.669 -138.873,544.269C-136.373,541.369 -133.973,539.569 -131.773,538.669C-132.273,539.369 -132.673,540.169 -132.973,540.969C-133.473,541.969 -133.873,543.069 -134.173,544.169C-134.273,544.569 -134.373,544.769 -134.373,545.169C-134.773,545.569 -134.873,546.269 -134.973,547.169C-135.573,549.269 -136.073,550.869 -136.473,551.969C-136.773,552.669 -136.873,553.269 -137.073,554.069C-137.873,557.069 -138.273,560.269 -138.273,563.769C-138.273,566.469 -137.473,569.769 -136.073,573.869C-134.573,578.169 -132.973,581.169 -131.273,583.069C-128.573,585.969 -127.073,587.569 -126.873,587.769C-124.873,589.669 -122.773,591.169 -120.473,592.369C-114.573,595.469 -110.573,597.169 -108.273,597.469C-106.573,597.869 -104.973,598.069 -103.373,598.069C-99.173,598.069 -95.073,597.569 -91.273,596.569C-78.973,592.769 -69.573,584.169 -63.073,570.969C-61.373,567.269 -58.273,562.569 -53.873,556.769C-52.573,555.569 -50.573,553.169 -47.973,549.769C-46.473,547.869 -44.473,545.769 -42.173,543.769C-38.973,540.969 -34.073,537.869 -27.373,534.569C-20.773,531.269 -15.873,529.469 -12.873,529.069C-9.973,528.669 -7.473,528.469 -5.373,528.569C-3.373,528.569 -2.373,528.469 -2.373,528.169C-4.973,527.569 -8.373,527.269 -12.373,527.269C-18.673,527.269 -23.773,527.969 -27.573,529.169C-29.773,529.969 -32.273,531.269 -35.173,533.169C-44.373,539.769 -53.873,541.669 -63.773,538.769C-65.673,538.069 -67.373,537.069 -68.973,535.869C-72.273,533.569 -74.873,530.169 -76.573,526.069C-76.773,525.669 -76.873,525.169 -77.073,524.769C-77.073,524.669 -77.173,524.569 -77.273,524.369L-77.173,524.369C-78.273,520.269 -78.773,515.669 -78.473,510.569C-78.373,505.169 -76.973,500.869 -74.473,497.469C-71.973,494.069 -70.273,491.769 -69.173,490.569C-65.973,487.469 -62.573,485.269 -58.873,484.069C-55.973,483.169 -53.373,482.269 -51.073,481.769C-58.673,480.269 -64.773,476.569 -69.373,470.569C-73.373,465.369 -75.373,460.169 -75.373,455.069C-75.373,453.069 -75.173,451.369 -74.873,449.869C-74.473,448.369 -73.873,446.569 -72.973,444.669C-72.173,442.869 -71.173,441.269 -70.073,439.869C-67.273,434.869 -62.873,431.669 -57.273,430.469C-55.673,430.169 -53.873,429.869 -52.073,429.869L-47.773,429.869C-44.673,430.369 -41.473,431.069 -38.073,432.169C-36.973,432.469 -35.973,432.769 -34.973,433.169C-38.573,429.369 -41.073,425.969 -42.673,423.169C-49.273,413.369 -51.873,403.569 -50.773,393.869C-50.273,389.069 -48.773,384.369 -46.273,379.569C-40.073,368.969 -29.873,362.769 -15.473,360.769C-10.573,360.469 -5.873,360.769 -1.473,361.669C7.027,363.669 14.027,367.969 19.427,374.769C21.227,376.969 23.027,379.669 24.527,382.469C24.727,382.969 25.027,383.469 25.227,383.969L26.527,386.869C25.127,384.669 24.227,383.369 23.827,382.869C23.727,382.869 23.727,382.869 23.627,382.769C20.127,379.369 18.127,377.469 17.527,377.069C17.127,376.769 16.727,376.469 16.427,376.269C15.627,375.869 14.927,375.469 14.127,374.969C7.627,371.469 0.527,369.769 -7.373,369.769C-8.673,369.769 -9.873,369.769 -10.973,369.969C-11.373,369.969 -11.873,369.969 -12.273,370.069C-27.073,372.769 -34.173,380.569 -33.373,393.369L-33.373,393.869C-33.173,400.669 -30.573,407.269 -25.573,413.669C-24.873,414.569 -24.173,415.369 -23.473,416.069C-23.373,416.169 -23.373,416.269 -23.173,416.369C-17.573,421.869 -10.273,426.569 -0.973,430.669C0.727,431.669 2.627,432.769 4.527,433.769C4.727,433.869 5.027,434.169 5.327,434.269C6.527,434.869 7.627,435.469 8.927,436.069C12.127,437.669 15.527,439.169 19.127,440.569C22.927,442.169 27.027,444.369 31.127,447.469C31.127,447.569 31.227,447.669 31.327,447.669C32.627,448.969 34.627,451.069 37.327,454.069C40.527,457.669 43.327,461.669 45.727,466.069C47.727,469.669 49.627,473.969 51.427,478.769C52.027,480.969 52.627,482.769 53.127,484.469C53.227,484.769 53.427,485.169 53.527,485.469L53.527,487.769C53.627,487.469 53.727,487.069 53.927,486.669C54.127,486.269 54.127,485.869 54.327,485.469C54.527,485.169 54.627,484.769 54.627,484.469C55.127,482.769 55.727,480.969 56.427,478.769C58.127,473.969 60.127,469.669 62.127,466.069C64.527,461.669 67.227,457.669 70.527,454.069C73.127,451.069 75.127,448.969 76.527,447.669C76.527,447.669 76.627,447.569 76.627,447.469C80.827,444.369 84.927,442.169 88.727,440.569C92.327,439.169 95.727,437.669 98.927,436.069C100.127,435.469 101.327,434.869 102.527,434.269C102.727,434.169 103.127,433.869 103.327,433.769C105.227,432.769 107.027,431.669 108.727,430.669C118.027,426.569 125.427,421.869 131.027,416.369C131.127,416.269 131.227,416.169 131.327,416.069C132.027,415.369 132.627,414.569 133.427,413.669C138.427,407.269 141.027,400.669 141.127,393.869L141.127,393.369C142.027,380.569 134.927,372.769 120.027,370.069C119.627,369.969 119.227,369.969 118.827,369.969C117.627,369.769 116.527,369.769 115.227,369.769C107.327,369.769 100.127,371.469 93.627,374.969C93.227,375.269 92.827,375.469 92.427,375.769C91.627,376.169 90.927,376.669 90.227,377.069C89.727,377.469 87.927,379.169 84.627,382.269L84.127,382.769C84.127,382.869 84.027,382.869 84.027,382.869C83.627,383.369 82.627,384.669 81.227,386.869L82.627,383.969C82.927,383.269 83.227,382.669 83.627,381.969C85.127,379.069 87.027,376.469 88.927,374.169C94.227,367.769 101.027,363.569 109.227,361.669C113.727,360.769 118.427,360.469 123.227,360.769C137.627,362.769 147.927,368.969 154.127,379.569C156.527,384.369 158.027,389.069 158.627,393.869C159.727,403.569 157.027,413.369 150.527,423.169C148.927,425.969 146.427,429.369 142.827,433.169C143.727,432.769 144.727,432.469 145.927,432.169C149.227,431.069 152.527,430.369 155.527,429.869L159.927,429.869C161.727,429.869 163.527,430.169 165.127,430.469C170.727,431.669 175.027,434.869 177.927,439.869C179.027,441.269 180.027,442.869 180.827,444.669C181.727,446.569 182.327,448.369 182.627,449.869C183.027,451.369 183.127,453.069 183.127,455.069C183.127,460.169 181.127,465.369 177.127,470.569C172.527,476.569 166.527,480.269 158.927,481.769C161.227,482.269 163.727,483.169 166.627,484.069C170.427,485.269 173.827,487.469 177.027,490.569C178.027,491.769 179.827,494.069 182.227,497.469C184.727,500.869 186.127,505.169 186.327,510.569C186.527,515.669 186.127,520.269 185.027,524.369C185.027,524.569 184.927,524.669 184.927,524.769C184.727,525.169 184.627,525.669 184.427,526.069C182.627,530.169 180.127,533.569 176.727,535.869C175.227,537.069 173.527,538.069 171.527,538.769C161.627,541.669 152.127,539.769 143.027,533.169C140.027,531.269 137.527,529.969 135.427,529.169C131.527,527.969 126.527,527.269 120.227,527.269C116.127,527.269 112.827,527.569 110.227,528.169C110.227,528.469 111.227,528.569 113.227,528.569C115.227,528.469 117.727,528.669 120.727,529.069C123.627,529.469 128.527,531.269 135.127,534.569C141.927,537.869 146.827,540.969 150.027,543.769C152.327,545.769 154.227,547.869 155.827,549.769C158.427,553.169 160.427,555.569 161.727,556.769C166.127,562.569 169.127,567.269 170.927,570.969C177.427,584.169 186.827,592.769 199.027,596.569C202.927,597.569 207.027,598.069 211.227,598.069C212.727,598.069 214.427,597.869 216.027,597.469C218.427,597.169 222.427,595.469 228.227,592.369C230.527,591.169 232.627,589.669 234.627,587.769C234.927,587.569 236.427,585.969 239.027,583.069C240.727,581.169 242.427,578.169 243.927,573.869C245.327,569.769 246.027,566.469 246.027,563.769C246.027,560.269 245.627,557.069 244.927,554.069C244.727,553.269 244.527,552.669 244.227,551.969C243.927,550.869 243.427,549.269 242.727,547.169C242.727,546.269 242.627,545.569 242.227,545.169C242.127,544.769 242.127,544.569 242.027,544.169C241.627,543.069 241.227,541.969 240.827,540.969C240.527,540.169 240.027,539.369 239.627,538.669C241.727,539.569 244.127,541.369 246.627,544.269C249.527,547.669 251.227,550.469 251.927,552.769C253.227,557.469 254.027,560.269 254.127,561.269C254.227,561.569 254.227,563.669 254.227,567.569C254.227,571.169 253.827,574.669 253.027,577.869C251.627,584.269 248.627,590.669 244.227,596.669C236.627,606.969 226.127,613.769 212.427,616.969C204.127,619.069 196.227,619.069 188.727,616.969C178.727,612.669 170.127,606.769 163.127,599.469C158.227,594.469 153.127,587.469 147.627,578.269C142.127,569.269 138.127,563.469 135.527,560.769C135.027,560.269 134.427,559.769 133.927,559.369C127.427,553.269 119.527,551.969 110.127,555.169C109.827,555.369 109.427,555.569 109.127,555.669C107.627,556.269 106.227,557.069 104.927,558.169C104.027,558.769 103.127,559.469 102.527,560.169C101.927,560.969 101.327,561.769 100.727,562.669C100.127,563.969 99.427,565.669 98.527,567.969C97.627,570.269 97.027,572.069 96.427,573.169C94.927,576.169 94.027,577.869 93.727,578.469C92.627,580.369 91.127,582.069 89.427,583.569L89.227,583.669L88.927,583.869C88.327,584.269 87.627,584.669 87.027,585.169C86.727,585.269 86.127,585.669 84.927,586.169C83.927,586.969 82.727,587.669 81.527,588.569C77.727,591.069 75.627,593.069 75.027,594.669C74.827,595.169 74.327,596.269 73.627,597.969C73.027,599.169 72.627,600.069 72.427,600.769C73.627,599.869 75.227,598.969 77.127,598.069C78.427,597.569 79.627,596.969 80.927,596.469L94.027,593.469C95.027,593.169 96.027,592.969 97.027,592.669C99.427,592.269 101.927,592.069 104.527,592.069C115.027,592.069 123.927,595.669 131.227,603.069" style="fill:rgb(19,193,0);fill-rule:nonzero;"/>
            </g>
            <g id="g3019">
                <path id="path3021" d="M108.927,624.669C110.227,623.969 111.427,623.169 112.527,621.969C115.027,619.469 116.327,616.369 116.327,612.769C116.327,609.169 115.027,606.069 112.527,603.569C112.027,603.069 111.527,602.669 111.027,602.169C108.727,600.569 106.127,599.669 103.227,599.669C101.727,599.669 100.327,599.869 99.027,600.269C98.627,600.469 98.327,600.569 98.027,600.669L98.127,600.669C99.127,600.669 100.027,600.969 100.727,601.369C100.927,601.469 101.127,601.569 101.227,601.669C101.427,601.769 101.527,601.869 101.627,601.969C102.627,602.969 103.127,604.169 103.127,605.769C103.127,606.669 102.927,607.469 102.427,608.369C102.027,609.169 101.527,609.669 100.827,610.069C100.127,610.469 99.227,610.769 98.127,610.769C96.427,610.769 95.127,610.169 94.127,608.769C93.527,607.769 93.127,606.769 93.127,605.769C93.127,605.469 93.127,605.269 93.227,604.969C93.227,604.669 93.327,604.469 93.427,604.169C91.127,606.569 90.127,609.469 90.127,612.769L90.127,614.469C90.527,617.369 91.827,619.869 94.027,621.969C94.627,622.669 95.227,623.269 95.927,623.669L96.027,623.669C98.127,625.169 100.527,625.969 103.227,625.969C104.727,625.969 106.127,625.669 107.527,625.269C107.827,625.169 108.127,624.969 108.527,624.769C108.627,624.769 108.727,624.669 108.927,624.669M132.127,635.169C131.727,637.169 131.127,638.969 130.427,640.769C128.927,644.069 126.827,647.069 124.127,649.769C121.227,652.669 118.127,654.769 114.727,656.169C114.027,656.469 113.127,656.769 112.427,656.969C109.527,657.969 106.527,658.369 103.327,658.369C95.127,658.369 88.227,655.469 82.527,649.769L82.227,649.469C81.427,648.669 80.627,647.769 79.927,646.769C77.127,643.269 75.327,639.369 74.527,635.069L73.927,629.469L73.927,628.969L74.527,623.269C75.227,618.769 77.127,614.769 79.927,611.169C80.627,610.169 81.627,609.169 82.527,608.169C87.627,603.069 93.627,600.169 100.727,599.669C101.627,599.669 102.527,599.569 103.327,599.569C105.127,599.569 106.727,599.669 108.427,599.969C112.027,600.569 115.427,601.769 118.527,603.669C120.527,604.969 122.427,606.469 124.127,608.169C124.327,608.369 124.527,608.569 124.727,608.769C125.327,609.469 125.927,610.069 126.427,610.769C129.027,613.869 130.727,617.369 131.727,621.169C132.027,622.169 132.127,623.069 132.327,623.969L132.727,628.969L132.727,629.469L132.127,635.169Z" style="fill:white;fill-rule:nonzero;"/>
            </g>
            <g id="g3023">
                <path id="path3025" d="M112.527,621.969C111.427,623.169 110.227,623.969 108.927,624.669C108.727,624.669 108.627,624.769 108.527,624.769C108.127,624.969 107.827,625.169 107.527,625.269C106.127,625.669 104.727,625.969 103.227,625.969C100.527,625.969 98.127,625.169 96.027,623.669L95.927,623.669C95.227,623.269 94.627,622.669 94.027,621.969C91.827,619.869 90.527,617.369 90.127,614.469L90.127,612.769C90.127,609.469 91.127,606.569 93.427,604.169C93.327,604.469 93.227,604.669 93.227,604.969C93.127,605.269 93.127,605.469 93.127,605.769C93.127,606.769 93.527,607.769 94.127,608.769C95.127,610.169 96.427,610.769 98.127,610.769C99.227,610.769 100.127,610.469 100.827,610.069C101.527,609.669 102.027,609.169 102.427,608.369C102.927,607.469 103.127,606.669 103.127,605.769C103.127,604.169 102.627,602.969 101.627,601.969C101.527,601.869 101.427,601.769 101.227,601.669C101.127,601.569 100.927,601.469 100.727,601.369C100.027,600.969 99.127,600.669 98.127,600.669L98.027,600.669C98.327,600.569 98.627,600.469 99.027,600.269C100.327,599.869 101.727,599.669 103.227,599.669C106.127,599.669 108.727,600.569 111.027,602.169C111.527,602.669 112.027,603.069 112.527,603.569C115.027,606.069 116.327,609.169 116.327,612.769C116.327,616.369 115.027,619.469 112.527,621.969" style="fill-rule:nonzero;"/>
            </g>
            <g id="g3027">
                <path id="path3029" d="M165.027,570.169C164.927,570.069 164.827,569.969 164.627,569.969C164.727,569.769 164.727,569.669 164.727,569.569C164.927,569.769 165.027,569.969 165.027,570.169" style="fill:rgb(103,140,93);fill-rule:nonzero;"/>
            </g>
            <g id="g3031">
                <path id="path3033" d="M172.727,526.069C172.727,527.569 172.227,528.969 171.127,530.169C169.627,531.669 167.427,532.669 164.427,532.969L161.627,532.969C160.127,532.969 158.727,532.669 157.427,532.169C155.127,531.569 153.027,530.469 151.127,528.769C150.827,528.569 149.827,527.569 148.127,525.669L148.127,525.569L148.027,525.569C147.627,525.269 147.527,525.069 147.327,524.769L147.227,524.769C147.127,524.669 147.127,524.669 147.027,524.469C146.627,523.069 145.227,521.169 143.127,518.769C141.327,516.869 139.227,514.969 136.927,513.069C134.627,511.169 131.427,509.169 127.127,507.169C122.427,504.769 118.927,503.669 116.527,503.569L116.227,503.569C114.727,503.269 113.127,503.069 111.127,502.869C111.127,502.969 111.127,502.969 111.227,502.969C110.427,502.969 109.627,502.969 109.227,502.869L108.627,502.869C108.627,502.969 108.427,502.969 108.127,503.069L107.627,503.069C107.527,502.969 107.427,502.969 107.327,502.969C107.627,502.969 108.127,502.869 108.527,502.769C109.227,502.669 109.927,502.669 110.527,502.569L116.127,502.569C116.527,502.669 116.727,502.669 117.127,502.669C118.227,502.769 119.527,502.969 120.627,503.069C127.627,503.869 133.627,504.669 138.327,505.569C143.227,506.369 147.927,507.469 152.527,508.669C158.827,510.469 163.327,512.669 165.927,515.169C166.127,515.469 166.427,515.769 166.627,516.069C167.027,516.269 167.327,516.569 167.627,516.769C170.827,519.369 172.527,521.969 172.627,524.369C172.627,524.569 172.727,524.669 172.727,524.769L172.727,526.069Z" style="fill:rgb(22,147,0);fill-rule:nonzero;"/>
            </g>
            <g id="g3035">
                <path id="path3037" d="M111.727,486.069C110.827,486.369 109.327,486.969 107.227,487.669C105.227,488.369 103.727,488.969 102.727,489.369C100.027,490.669 97.127,492.169 94.427,494.069C91.627,495.769 89.327,497.569 87.527,499.169C84.627,501.769 81.627,505.169 78.327,509.369C77.927,509.869 77.227,510.669 76.427,511.969C76.127,512.269 75.927,512.669 75.627,513.069C75.627,512.769 75.727,512.469 75.727,512.169C76.027,511.569 76.327,510.769 76.827,509.969C77.427,509.069 77.827,508.269 78.127,507.969C79.127,506.169 81.027,503.469 83.627,499.669C85.227,497.269 87.827,494.569 91.427,491.469L91.527,491.269C91.827,491.169 92.127,490.969 92.427,490.769C94.827,489.069 97.427,487.569 100.127,486.269C103.727,484.769 107.327,483.269 110.927,482.069C111.627,481.769 112.427,481.569 113.127,481.269C113.927,480.969 115.027,480.569 116.327,480.069C116.427,479.569 116.527,478.969 116.627,478.169C117.427,478.469 118.027,478.669 118.527,478.669C119.027,478.769 119.427,478.869 119.727,478.969C120.227,478.969 120.627,478.969 120.927,478.769L121.127,478.769C121.527,478.869 121.727,478.969 122.027,478.969L122.127,478.969C122.227,479.069 122.227,479.069 122.327,479.069C123.927,479.169 125.227,479.269 126.527,479.469C126.927,479.469 127.227,479.569 127.627,479.669L128.327,479.669C133.027,480.269 136.127,480.669 137.527,480.969L142.227,480.969C144.927,481.169 146.927,481.469 148.127,481.569L148.627,481.569L148.627,481.669L138.527,481.669C138.127,481.669 137.727,481.769 137.327,481.869C136.627,481.969 135.527,481.969 133.827,482.069C130.927,482.269 128.227,482.669 125.727,482.969C123.527,483.269 121.427,483.669 119.527,484.069C118.127,484.269 116.627,484.669 114.627,485.169C113.727,485.469 112.927,485.769 111.927,486.069L111.727,486.069Z" style="fill:rgb(22,147,0);fill-rule:nonzero;"/>
            </g>
            <g id="g3039">
                <path id="path3041" d="M133.427,477.269C133.127,477.269 132.927,477.269 132.627,477.169L133.627,477.169C133.627,477.269 133.527,477.269 133.427,477.269" style="fill:rgb(103,140,93);fill-rule:nonzero;"/>
            </g>
            <g id="g3043">
                <path id="path3045" d="M113.627,454.069C115.027,453.669 116.227,453.169 117.427,452.869C118.227,452.469 118.927,452.169 119.527,451.869C122.127,450.569 124.527,449.469 126.527,448.469C127.127,448.169 127.827,447.869 128.427,447.569L128.127,447.569C129.527,446.869 130.627,446.369 131.527,445.769C135.127,443.669 138.027,441.969 140.127,440.869C142.727,439.969 145.627,439.169 148.627,438.269C150.127,437.869 151.527,437.569 152.727,437.169C154.827,436.969 156.127,436.869 156.627,436.869C161.127,436.869 164.627,438.169 167.127,440.869C167.527,441.169 167.727,441.669 168.027,442.369C168.127,442.369 168.127,442.569 168.127,442.569C168.127,442.769 168.127,442.969 168.027,443.169C168.127,444.069 168.127,444.569 168.127,444.569C168.127,446.069 167.427,447.369 165.927,448.569C165.027,449.369 163.727,450.069 162.127,450.869C160.927,451.869 158.527,452.969 154.927,454.069C151.227,455.169 147.927,455.969 145.027,456.369C141.927,456.869 138.127,457.569 133.627,458.369C131.927,458.669 130.027,458.869 127.927,459.069C126.427,459.169 124.927,459.369 123.227,459.569C120.527,459.769 117.627,460.069 114.327,460.169L99.027,460.169L98.527,460.369L93.027,460.369L92.527,460.469L83.727,460.469C81.027,460.369 77.627,459.869 73.827,458.969C72.627,458.669 71.627,458.469 70.627,458.169L82.827,458.169L84.327,457.969L88.327,457.969C92.027,457.869 95.327,457.569 98.427,457.069L100.827,457.069C102.627,456.669 103.727,456.369 104.227,456.169C104.427,456.169 104.527,456.169 104.527,456.069C107.927,455.469 111.027,454.769 113.627,454.069" style="fill:rgb(22,147,0);fill-rule:nonzero;"/>
            </g>
            <g id="g3047">
                <path id="path3049" d="M17.627,614.469C17.627,613.969 17.727,613.369 17.727,612.769C17.727,609.469 16.627,606.569 14.427,604.169C14.527,604.469 14.527,604.669 14.627,604.969L14.627,605.769C14.627,606.769 14.227,607.769 13.627,608.769C12.627,610.169 11.427,610.769 9.627,610.769C8.627,610.769 7.727,610.469 7.027,610.069C6.327,609.669 5.727,609.169 5.427,608.369C4.927,607.469 4.627,606.669 4.627,605.769C4.627,604.169 5.127,602.969 6.127,601.969C6.327,601.869 6.427,601.769 6.627,601.669C6.727,601.569 6.927,601.469 7.027,601.369C7.727,600.969 8.627,600.669 9.627,600.669L9.827,600.669C9.527,600.569 9.127,600.469 8.727,600.269C7.527,599.869 6.127,599.669 4.627,599.669C1.627,599.669 -0.873,600.569 -3.173,602.169C-3.773,602.669 -4.273,603.069 -4.673,603.569C-7.273,606.069 -8.473,609.169 -8.473,612.769C-8.473,616.369 -7.273,619.469 -4.673,621.969C-3.573,623.169 -2.373,623.969 -1.073,624.669C-0.973,624.669 -0.873,624.769 -0.673,624.769C-0.373,624.969 0.027,625.169 0.327,625.269C1.627,625.669 3.127,625.969 4.627,625.969C7.227,625.969 9.627,625.169 11.827,623.669L11.927,623.669C12.527,623.269 13.127,622.669 13.827,621.969C16.027,619.869 17.227,617.369 17.627,614.469M33.327,635.069C32.527,639.369 30.627,643.269 27.927,646.769C27.127,647.769 26.427,648.669 25.627,649.469C25.527,649.569 25.427,649.669 25.227,649.769C19.527,655.469 12.627,658.369 4.527,658.369C1.227,658.369 -1.773,657.969 -4.573,656.969C-5.373,656.769 -6.173,656.469 -6.873,656.169C-10.373,654.769 -13.473,652.669 -16.373,649.769C-18.973,647.069 -21.073,644.069 -22.573,640.769C-23.373,638.969 -23.973,637.169 -24.373,635.169L-24.873,629.469L-24.873,628.969L-24.473,623.969C-24.373,623.069 -24.173,622.169 -23.873,621.169C-22.873,617.369 -21.173,613.869 -18.573,610.769C-18.073,610.069 -17.473,609.469 -16.873,608.769C-16.773,608.569 -16.473,608.369 -16.373,608.169C-14.573,606.469 -12.773,604.969 -10.773,603.669C-7.573,601.769 -4.273,600.569 -0.573,599.969C1.127,599.669 2.727,599.569 4.527,599.569C5.327,599.569 6.227,599.669 7.127,599.669C14.127,600.169 20.127,603.069 25.227,608.169C26.227,609.169 27.127,610.169 27.927,611.169C30.727,614.769 32.527,618.769 33.327,623.269L33.927,628.969L33.927,629.469L33.327,635.069Z" style="fill:white;fill-rule:nonzero;"/>
            </g>
            <g id="g3051">
                <path id="path3053" d="M17.727,612.769C17.727,613.369 17.627,613.969 17.627,614.469C17.227,617.369 16.027,619.869 13.827,621.969C13.127,622.669 12.527,623.269 11.927,623.669L11.827,623.669C9.627,625.169 7.227,625.969 4.627,625.969C3.127,625.969 1.627,625.669 0.327,625.269C0.027,625.169 -0.373,624.969 -0.673,624.769C-0.873,624.769 -0.973,624.669 -1.073,624.669C-2.373,623.969 -3.573,623.169 -4.673,621.969C-7.273,619.469 -8.473,616.369 -8.473,612.769C-8.473,609.169 -7.273,606.069 -4.673,603.569C-4.273,603.069 -3.773,602.669 -3.173,602.169C-0.873,600.569 1.627,599.669 4.627,599.669C6.127,599.669 7.527,599.869 8.727,600.269C9.127,600.469 9.527,600.569 9.827,600.669L9.627,600.669C8.627,600.669 7.727,600.969 7.027,601.369C6.927,601.469 6.727,601.569 6.627,601.669C6.427,601.769 6.327,601.869 6.127,601.969C5.127,602.969 4.627,604.169 4.627,605.769C4.627,606.669 4.927,607.469 5.427,608.369C5.727,609.169 6.327,609.669 7.027,610.069C7.727,610.469 8.627,610.769 9.627,610.769C11.427,610.769 12.627,610.169 13.627,608.769C14.227,607.769 14.627,606.769 14.627,605.769L14.627,604.969C14.527,604.669 14.527,604.469 14.427,604.169C16.627,606.569 17.727,609.469 17.727,612.769" style="fill-rule:nonzero;"/>
            </g>
            <g id="g3055">
            </g>
            <g id="g3059">
                <path id="path3061" d="M30.427,541.769C30.427,541.369 30.227,541.069 30.127,540.669C29.127,535.169 30.227,529.869 33.627,524.669C37.127,519.369 42.027,516.169 48.427,515.169C50.027,514.769 51.727,514.669 53.527,514.669L54.327,514.669C56.127,514.669 57.727,514.769 59.427,515.169C65.727,516.169 70.627,519.369 74.127,524.669C77.627,529.869 78.727,535.169 77.627,540.669C77.527,541.069 77.427,541.369 77.427,541.769C77.227,541.869 77.227,542.169 77.127,542.669C76.927,541.669 76.627,540.669 76.227,540.069C75.027,537.469 73.527,534.969 71.627,532.669C66.627,526.269 60.927,522.969 54.327,522.669L53.527,522.669C47.027,522.969 41.227,526.269 36.127,532.669C34.327,534.969 32.727,537.469 31.527,540.069C31.227,540.669 30.927,541.669 30.627,542.669C30.627,542.169 30.527,541.869 30.427,541.769" style="fill:rgb(22,147,0);fill-rule:nonzero;"/>
            </g>
            <g id="g3063">
                <path id="path3065" d="M54.827,559.469C56.127,560.669 58.127,561.269 60.827,561.069C61.927,560.969 62.927,560.769 63.827,560.469C67.627,558.869 69.227,556.169 68.927,552.269C68.527,550.069 67.127,547.169 64.627,543.869C61.427,539.569 58.027,537.169 54.327,536.869L53.527,536.869C49.827,537.169 46.427,539.569 43.127,543.869C40.727,547.169 39.227,550.069 38.927,552.269C38.527,556.169 40.227,558.869 44.027,560.469C44.927,560.769 45.927,560.969 47.027,561.069C49.627,561.269 51.627,560.769 53.027,559.469C51.127,557.669 50.927,555.169 52.527,551.769C53.027,555.369 53.527,557.569 53.927,558.269C54.127,558.769 54.527,559.169 54.827,559.469M42.327,540.469C42.427,540.269 42.527,540.169 42.627,540.069C45.227,536.069 48.927,533.869 53.527,533.569L53.527,533.469L54.327,533.469C58.927,533.769 62.627,535.969 65.227,540.069C65.327,540.169 65.427,540.269 65.527,540.469C66.427,541.769 67.427,543.569 68.627,545.769C74.127,556.569 77.927,567.569 79.827,578.769C62.627,576.169 45.227,576.169 28.027,578.769C29.927,567.569 33.627,556.569 39.127,545.769C40.427,543.569 41.427,541.769 42.327,540.469" style="fill-rule:nonzero;"/>
            </g>
            <g id="g3067">
                <path id="path3069" d="M53.027,549.269L53.027,549.569L53.027,549.269ZM60.827,561.069C58.127,561.269 56.127,560.669 54.827,559.469C54.527,559.169 54.127,558.769 53.927,558.269C53.527,557.569 53.027,555.369 52.527,551.769C50.927,555.169 51.127,557.669 53.027,559.469C51.627,560.769 49.627,561.269 47.027,561.069C45.927,560.969 44.927,560.769 44.027,560.469C40.227,558.869 38.527,556.169 38.927,552.269C39.227,550.069 40.727,547.169 43.127,543.869C46.427,539.569 49.827,537.169 53.527,536.869L54.327,536.869C58.027,537.169 61.427,539.569 64.627,543.869C67.127,547.169 68.527,550.069 68.927,552.269C69.227,556.169 67.627,558.869 63.827,560.469C62.927,560.769 61.927,560.969 60.827,561.069" style="fill:rgb(211,0,0);fill-rule:nonzero;"/>
            </g>
            <g id="g3071">
            </g>
            <g id="g3075">
                <path id="path3077" d="M-56.873,569.969C-56.973,569.969 -57.073,570.069 -57.273,570.169C-57.173,569.969 -57.073,569.769 -56.973,569.569C-56.873,569.669 -56.873,569.769 -56.873,569.969" style="fill:rgb(103,140,93);fill-rule:nonzero;"/>
            </g>
            <g id="g3079">
                <path id="path3081" d="M-46.773,511.969C-47.173,512.069 -47.573,512.169 -47.973,512.269C-47.673,512.169 -47.373,512.169 -46.873,512.069C-46.873,512.069 -46.773,512.069 -46.773,511.969M-64.973,526.069L-64.973,524.769C-64.873,524.669 -64.873,524.569 -64.873,524.369C-64.673,521.969 -62.973,519.369 -59.873,516.769C-59.473,516.569 -59.273,516.269 -58.873,516.069C-58.573,515.769 -58.373,515.469 -58.073,515.169C-55.473,512.669 -50.973,510.469 -44.673,508.669C-40.073,507.469 -35.373,506.369 -30.473,505.569C-25.773,504.669 -19.873,503.869 -12.873,503.069C-11.373,502.969 -9.873,502.669 -8.373,502.569L-2.773,502.569C-2.573,502.569 -2.373,502.569 -2.273,502.669C-1.873,502.669 -1.273,502.769 -0.773,502.769C-0.473,502.869 -0.273,502.869 0.027,502.869C0.027,502.969 0.127,502.969 0.127,502.969L0.527,502.969C0.427,502.969 0.327,502.969 0.227,503.069L-2.373,503.069C-2.573,503.069 -2.873,503.069 -3.073,503.169L-3.573,503.169C-4.373,503.069 -5.373,503.169 -6.473,503.569C-7.273,503.669 -8.073,503.969 -8.973,504.269C-10.873,504.669 -12.973,505.469 -15.273,506.569C-15.873,506.569 -16.373,506.669 -16.873,506.669C-16.573,506.769 -16.273,506.869 -15.873,506.769C-17.373,507.569 -19.073,508.469 -20.873,509.569C-21.073,509.669 -21.373,509.669 -21.773,509.769C-22.473,510.169 -23.273,510.669 -23.973,511.169C-25.373,511.969 -26.373,512.769 -27.173,513.469C-29.373,514.769 -31.473,516.569 -33.673,518.669C-33.673,518.669 -33.673,518.769 -33.573,518.869C-33.973,519.169 -34.373,519.469 -34.773,519.769C-34.973,520.069 -35.173,520.169 -35.373,520.469C-35.873,521.069 -36.473,521.569 -36.873,522.169C-37.873,523.169 -38.773,524.069 -39.473,524.769C-41.773,527.169 -42.973,528.569 -43.273,528.769C-45.273,530.469 -47.373,531.569 -49.573,532.169C-50.873,532.669 -52.373,532.969 -53.873,532.969L-56.573,532.969C-59.573,532.669 -61.873,531.669 -63.273,530.169C-64.373,528.969 -64.973,527.569 -64.973,526.069" style="fill:rgb(22,147,0);fill-rule:nonzero;"/>
            </g>
            <g id="g3083">
                <path id="path3085" d="M-47.973,512.269C-47.573,512.169 -47.173,512.069 -46.773,511.969C-46.773,512.069 -46.873,512.069 -46.873,512.069C-47.373,512.169 -47.673,512.169 -47.973,512.269" style="fill:rgb(89,160,86);fill-rule:nonzero;"/>
            </g>
            <g id="g3087">
                <path id="path3089" d="M-60.273,443.169C-60.273,442.969 -60.273,442.769 -60.373,442.569C-60.273,442.569 -60.273,442.369 -60.273,442.369C-59.973,441.669 -59.673,441.169 -59.373,440.869C-56.873,438.169 -53.373,436.869 -48.773,436.869C-48.273,436.869 -46.973,436.969 -44.973,437.169C-43.773,437.569 -42.373,437.869 -40.873,438.269C-37.873,439.169 -34.873,439.969 -32.273,440.869C-30.273,441.969 -27.373,443.669 -23.673,445.769C-22.773,446.369 -21.673,446.869 -20.373,447.569L-20.573,447.569C-19.373,448.169 -18.073,448.669 -16.573,449.469C-15.173,450.169 -13.473,450.969 -11.773,451.869C-11.073,452.169 -10.373,452.469 -9.573,452.869C-8.473,453.169 -7.273,453.669 -5.873,454.069L-5.773,454.069C-3.073,454.769 -0.073,455.469 3.227,456.069C3.327,456.169 3.427,456.169 3.527,456.169C4.127,456.369 5.227,456.669 7.027,457.069L9.427,457.069C9.927,457.169 10.327,457.169 10.727,457.169C13.427,457.569 16.327,457.869 19.527,457.969L23.527,457.969L25.027,458.169L37.127,458.169C36.227,458.469 35.127,458.669 34.027,458.969C30.127,459.869 26.827,460.369 24.027,460.469L15.227,460.469L14.827,460.369L9.227,460.369L8.827,460.169L-6.473,460.169C-9.773,460.069 -12.773,459.769 -15.373,459.569C-16.273,459.469 -17.073,459.369 -17.873,459.369C-20.873,459.069 -23.473,458.669 -25.773,458.369C-30.373,457.569 -34.073,456.869 -37.173,456.369C-40.073,455.969 -43.373,455.169 -47.073,454.069C-50.773,452.969 -53.073,451.869 -54.373,450.869C-55.873,450.069 -57.173,449.369 -58.073,448.569C-59.573,447.369 -60.373,446.069 -60.373,444.569C-60.373,444.569 -60.273,444.069 -60.273,443.169" style="fill:rgb(22,147,0);fill-rule:nonzero;"/>
            </g>
            <g id="g3091">
                <path id="path3093" d="M32.127,512.169L32.127,513.069C31.927,512.669 31.627,512.269 31.427,511.969C30.527,510.669 29.927,509.869 29.527,509.369C26.127,505.169 23.127,501.769 20.227,499.169C18.527,497.569 16.127,495.769 13.427,494.069C12.727,493.669 12.027,493.169 11.327,492.669C9.227,491.469 7.127,490.269 5.027,489.369C4.127,488.969 2.627,488.369 0.627,487.669C-1.473,486.969 -2.973,486.369 -3.873,486.069L-4.073,486.069C-5.073,485.769 -5.973,485.469 -6.873,485.169C-8.773,484.669 -10.373,484.269 -11.673,484.069C-12.873,483.769 -14.273,483.569 -15.573,483.269C-18.773,482.769 -22.173,482.369 -25.973,482.069C-27.773,481.969 -28.873,481.969 -29.473,481.869C-29.973,481.769 -30.373,481.669 -30.673,481.669L-40.873,481.669L-40.873,481.569L-40.373,481.569C-39.073,481.469 -37.073,481.169 -34.473,480.969L-29.773,480.969C-28.473,480.769 -25.973,480.469 -22.273,479.969C-21.773,479.869 -21.273,479.769 -20.673,479.669L-19.873,479.669C-19.073,479.469 -18.273,479.369 -17.373,479.269C-17.073,479.169 -16.773,479.169 -16.473,479.169L-16.273,479.169C-15.873,479.169 -15.373,479.069 -14.873,479.069L-14.473,479.069C-14.473,479.069 -14.373,479.069 -14.373,478.969L-14.273,478.969C-13.973,478.969 -13.673,478.869 -13.373,478.769L-13.073,478.769C-12.573,479.069 -11.773,478.969 -10.773,478.669C-10.273,478.669 -9.573,478.469 -8.773,478.169C-8.773,479.069 -8.573,479.769 -8.373,480.369C-7.573,480.669 -6.773,480.869 -5.673,481.169C-5.473,481.269 -5.273,481.269 -5.073,481.369C-3.473,481.769 -2.573,481.969 -2.473,482.069C-1.073,482.469 -0.173,482.869 0.427,483.269C2.827,484.269 5.227,485.269 7.727,486.269C8.627,486.669 9.427,487.069 10.227,487.569C12.027,488.469 13.727,489.569 15.427,490.769C15.627,490.969 16.027,491.169 16.227,491.269L16.427,491.469C20.027,494.569 22.627,497.269 24.227,499.669C26.827,503.469 28.627,506.169 29.727,507.969C30.027,508.269 30.427,509.069 31.027,509.969C31.527,510.769 31.827,511.569 32.027,512.169L32.127,512.169Z" style="fill:rgb(103,140,93);fill-rule:nonzero;"/>
            </g>
            <g id="g3095">
                <path id="path3097" d="M-25.573,477.269C-25.673,477.269 -25.773,477.269 -25.873,477.169L-24.873,477.169C-25.073,477.269 -25.373,477.269 -25.573,477.269" style="fill:rgb(103,140,93);fill-rule:nonzero;"/>
            </g>
            <g id="g3099">
                <path id="path3101" d="M176.727,535.869C179.127,538.569 181.627,542.369 184.127,547.569C185.627,550.469 187.127,553.669 188.527,557.069C188.527,557.169 188.627,557.169 188.627,557.169C188.927,557.769 189.127,558.269 189.227,558.769C189.327,559.069 189.427,559.269 189.527,559.569C189.727,560.169 189.927,560.769 190.127,561.369C190.527,562.169 190.927,562.969 191.227,563.669C192.027,566.069 192.727,567.969 193.227,569.469C193.827,570.869 194.427,572.269 195.027,573.569C199.227,584.869 206.627,589.369 217.127,587.069C219.927,586.269 222.827,585.069 225.727,583.169C227.527,582.069 229.227,580.769 230.727,579.469C240.427,569.069 243.727,556.169 240.827,540.969C241.227,541.969 241.627,543.069 242.027,544.169C242.127,544.569 242.127,544.769 242.227,545.169C242.627,545.569 242.727,546.269 242.727,547.169C243.427,549.269 243.927,550.869 244.227,551.969C244.527,552.669 244.727,553.269 244.927,554.069C245.627,557.069 246.027,560.269 246.027,563.769C246.027,566.469 245.327,569.769 243.927,573.869C242.427,578.169 240.727,581.169 239.027,583.069C236.427,585.969 234.927,587.569 234.627,587.769C232.627,589.669 230.527,591.169 228.227,592.369C222.427,595.469 218.427,597.169 216.027,597.469C214.427,597.869 212.727,598.069 211.227,598.069C207.027,598.069 202.927,597.569 199.027,596.569C186.827,592.769 177.427,584.169 170.927,570.969C169.127,567.269 166.127,562.569 161.727,556.769C160.427,555.569 158.427,553.169 155.827,549.769C154.227,547.869 152.327,545.769 150.027,543.769C146.827,540.969 141.927,537.869 135.127,534.569C128.527,531.269 123.627,529.469 120.727,529.069C117.727,528.669 115.227,528.469 113.227,528.569C111.227,528.569 110.227,528.469 110.227,528.169C112.827,527.569 116.127,527.269 120.227,527.269C126.527,527.269 131.527,527.969 135.427,529.169C137.527,529.969 140.027,531.269 143.027,533.169C152.127,539.769 161.627,541.669 171.527,538.769C173.527,538.069 175.227,537.069 176.727,535.869" style="fill:rgb(22,147,0);fill-rule:nonzero;"/>
            </g>
            <g id="g3103">
                <path id="path3105" d="M133.427,413.669C132.627,414.569 132.027,415.369 131.327,416.069C131.227,416.169 131.127,416.269 131.027,416.369C125.427,421.869 118.027,426.569 108.727,430.669C107.027,431.669 105.227,432.769 103.327,433.769C103.127,433.869 102.727,434.169 102.527,434.269C101.327,434.869 100.127,435.469 98.927,436.069C95.727,437.669 92.327,439.169 88.727,440.569C84.927,442.169 80.827,444.369 76.627,447.469C76.627,447.569 76.527,447.669 76.527,447.669C75.127,448.969 73.127,451.069 70.527,454.069C67.227,457.669 64.527,461.669 62.127,466.069C60.127,469.669 58.127,473.969 56.427,478.769C55.727,480.969 55.127,482.769 54.627,484.469C54.627,484.769 54.527,485.169 54.327,485.469C54.127,485.869 54.127,486.269 53.927,486.669C53.727,487.069 53.627,487.469 53.527,487.769L53.527,485.469C53.427,485.169 53.227,484.769 53.127,484.469C52.627,482.769 52.027,480.969 51.427,478.769C49.627,473.969 47.727,469.669 45.727,466.069C43.327,461.669 40.527,457.669 37.327,454.069C34.627,451.069 32.627,448.969 31.327,447.669C31.227,447.669 31.127,447.569 31.127,447.469C27.027,444.369 22.927,442.169 19.127,440.569C15.527,439.169 12.127,437.669 8.927,436.069C7.627,435.469 6.527,434.869 5.327,434.269C5.027,434.169 4.727,433.869 4.527,433.769C2.627,432.769 0.727,431.669 -0.973,430.669C-10.273,426.569 -17.573,421.869 -23.173,416.369C-23.373,416.269 -23.373,416.169 -23.473,416.069C-24.173,415.369 -24.873,414.569 -25.573,413.669C-30.573,407.269 -33.173,400.669 -33.373,393.869L-33.373,393.369C-34.173,380.569 -27.073,372.769 -12.273,370.069C-11.873,369.969 -11.373,369.969 -10.973,369.969C-9.873,369.769 -8.673,369.769 -7.373,369.769C0.527,369.769 7.627,371.469 14.127,374.969C14.927,375.469 15.627,375.869 16.427,376.269C16.727,376.469 17.127,376.769 17.527,377.069C18.127,377.469 20.127,379.369 23.627,382.769C23.727,382.869 23.727,382.869 23.827,382.869C24.227,383.369 25.127,384.669 26.527,386.869L22.627,383.969C22.327,383.869 22.027,383.669 21.627,383.369C18.427,381.869 15.427,380.469 12.727,379.469C9.727,378.369 7.127,377.669 4.927,377.269C-10.373,373.769 -18.573,377.469 -19.873,388.369C-20.173,389.669 -20.373,390.869 -20.373,391.969L-20.373,393.869C-20.073,398.769 -18.773,402.869 -16.273,405.969C-13.873,409.069 -9.973,411.869 -4.573,414.669C-1.273,416.369 4.827,419.069 13.627,422.769C22.427,426.669 30.227,430.869 37.327,435.269C43.427,439.069 48.927,444.169 53.927,450.869C58.927,444.169 64.427,439.069 70.527,435.269C77.527,430.869 85.427,426.669 94.127,422.769C103.027,419.069 109.027,416.369 112.427,414.669C117.827,411.869 121.727,409.069 124.127,405.969C126.527,402.869 127.927,398.769 128.127,393.869L128.127,391.969C128.127,390.869 128.027,389.669 127.627,388.369C126.427,377.469 118.127,373.769 102.927,377.269C101.127,377.569 99.027,378.169 96.627,378.969C93.727,379.969 90.627,381.269 87.027,382.969C86.427,383.369 85.727,383.669 85.127,383.969L81.227,386.869C82.627,384.669 83.627,383.369 84.027,382.869C84.027,382.869 84.127,382.869 84.127,382.769L84.627,382.269C87.927,379.169 89.727,377.469 90.227,377.069C90.927,376.669 91.627,376.169 92.427,375.769C92.827,375.469 93.227,375.269 93.627,374.969C100.127,371.469 107.327,369.769 115.227,369.769C116.527,369.769 117.627,369.769 118.827,369.969C119.227,369.969 119.627,369.969 120.027,370.069C134.927,372.769 142.027,380.569 141.127,393.369L141.127,393.869C141.027,400.669 138.427,407.269 133.427,413.669" style="fill:rgb(22,147,0);fill-rule:nonzero;"/>
            </g>
            <g id="g3107">
                <path id="path3109" d="M82.427,668.669C82.427,667.069 81.827,665.769 80.727,664.669C79.627,663.469 78.227,662.969 76.627,662.969C75.027,662.969 73.627,663.469 72.627,664.669C71.427,665.769 70.927,667.069 70.927,668.669C70.927,670.269 71.427,671.669 72.627,672.769C73.627,673.869 75.027,674.469 76.627,674.469C78.227,674.469 79.627,673.869 80.727,672.769C81.827,671.669 82.427,670.269 82.427,668.669M35.227,664.669C34.127,663.469 32.727,662.969 31.127,662.969C29.627,662.969 28.227,663.469 27.127,664.669C26.027,665.769 25.427,667.069 25.427,668.669C25.427,670.269 26.027,671.669 27.127,672.769C28.227,673.869 29.627,674.469 31.127,674.469C32.727,674.469 34.127,673.869 35.227,672.769C36.427,671.669 36.927,670.269 36.927,668.669C36.927,667.069 36.427,665.769 35.227,664.669M49.527,658.069C49.627,658.669 49.927,659.169 50.427,659.569C50.427,659.669 50.427,659.669 50.527,659.669C51.327,660.469 52.427,660.969 53.627,660.969C54.927,660.969 55.927,660.469 56.727,659.669C57.627,658.769 58.127,657.769 58.127,656.469C58.127,655.269 57.627,654.269 56.727,653.369C55.927,652.469 54.927,652.069 53.627,652.069C52.427,652.069 51.327,652.469 50.527,653.369L50.427,653.469C49.927,653.969 49.627,654.369 49.527,654.969C49.227,655.469 49.127,655.969 49.127,656.469C49.127,657.069 49.227,657.669 49.527,658.069M57.327,675.669C57.427,675.469 57.427,675.269 57.427,674.969C57.427,673.969 57.127,673.169 56.427,672.469C55.727,671.869 55.027,671.469 54.127,671.469L53.927,671.469C53.027,671.469 52.127,671.769 51.527,672.469C50.727,673.169 50.427,673.969 50.427,674.969L50.427,675.169C50.527,675.969 50.827,676.769 51.527,677.469C52.127,678.169 53.027,678.469 53.927,678.469C54.627,678.469 55.327,678.269 55.927,677.769C56.127,677.769 56.227,677.569 56.427,677.469C56.927,676.969 57.227,676.269 57.327,675.669M27.927,660.469C34.927,656.369 40.727,652.269 45.227,648.269C51.027,643.269 56.727,643.269 62.527,648.269C67.127,652.269 72.927,656.369 79.927,660.469C87.527,664.969 95.727,667.269 104.427,667.269L105.627,667.269C103.827,668.769 101.827,670.269 99.627,671.569C88.027,678.769 73.927,682.369 57.327,682.369C56.227,682.369 55.227,682.369 54.127,682.269C52.927,682.369 51.727,682.369 50.527,682.369C33.927,682.369 19.827,678.769 8.127,671.569C6.027,670.269 4.027,668.769 2.127,667.269L3.427,667.269C12.127,667.269 20.227,664.969 27.927,660.469" style="fill:rgb(22,147,0);fill-rule:nonzero;"/>
            </g>
            <g id="g3111">
                <path id="path3113" d="M57.427,674.969C57.427,675.269 57.427,675.469 57.327,675.669C57.227,676.269 56.927,676.969 56.427,677.469C56.227,677.569 56.127,677.769 55.927,677.769C55.327,678.269 54.627,678.469 53.927,678.469C53.027,678.469 52.127,678.169 51.527,677.469C50.827,676.769 50.527,675.969 50.427,675.169L50.427,674.969C50.427,673.969 50.727,673.169 51.527,672.469C52.127,671.769 53.027,671.469 53.927,671.469L54.127,671.469C55.027,671.469 55.727,671.869 56.427,672.469C57.127,673.169 57.427,673.969 57.427,674.969" style="fill:rgb(19,193,0);fill-rule:nonzero;"/>
            </g>
            <g id="g3115">
                <path id="path3117" d="M50.427,659.569C49.927,659.169 49.627,658.669 49.527,658.069C49.227,657.669 49.127,657.069 49.127,656.469C49.127,655.969 49.227,655.469 49.527,654.969C49.627,654.369 49.927,653.969 50.427,653.469L50.527,653.369C51.327,652.469 52.427,652.069 53.627,652.069C54.927,652.069 55.927,652.469 56.727,653.369C57.627,654.269 58.127,655.269 58.127,656.469C58.127,657.769 57.627,658.769 56.727,659.669C55.927,660.469 54.927,660.969 53.627,660.969C52.427,660.969 51.327,660.469 50.527,659.669C50.427,659.669 50.427,659.669 50.427,659.569" style="fill:rgb(19,193,0);fill-rule:nonzero;"/>
            </g>
            <g id="g3119">
                <path id="path3121" d="M31.127,662.969C32.727,662.969 34.127,663.469 35.227,664.669C36.427,665.769 36.927,667.069 36.927,668.669C36.927,670.269 36.427,671.669 35.227,672.769C34.127,673.869 32.727,674.469 31.127,674.469C29.627,674.469 28.227,673.869 27.127,672.769C26.027,671.669 25.427,670.269 25.427,668.669C25.427,667.069 26.027,665.769 27.127,664.669C28.227,663.469 29.627,662.969 31.127,662.969" style="fill:rgb(19,193,0);fill-rule:nonzero;"/>
            </g>
            <g id="g3123">
                <path id="path3125" d="M80.727,664.669C81.827,665.769 82.427,667.069 82.427,668.669C82.427,670.269 81.827,671.669 80.727,672.769C79.627,673.869 78.227,674.469 76.627,674.469C75.027,674.469 73.627,673.869 72.627,672.769C71.427,671.669 70.927,670.269 70.927,668.669C70.927,667.069 71.427,665.769 72.627,664.669C73.627,663.469 75.027,662.969 76.627,662.969C78.227,662.969 79.627,663.469 80.727,664.669" style="fill:rgb(19,193,0);fill-rule:nonzero;"/>
            </g>
            <g id="g3127">
                <path id="path3129" d="M2.127,573.269C3.027,573.269 3.927,572.969 4.527,572.269C5.127,571.669 5.527,570.769 5.527,569.869C5.527,568.969 5.127,568.069 4.527,567.469C3.927,566.769 3.027,566.469 2.127,566.469C1.127,566.469 0.227,566.769 -0.373,567.469C-0.973,568.069 -1.373,568.969 -1.373,569.869C-1.373,570.769 -0.973,571.669 -0.373,572.269C0.227,572.969 1.127,573.269 2.127,573.269M-1.373,587.669C-0.273,588.669 1.027,589.269 2.527,589.269C4.027,589.269 5.327,588.669 6.427,587.669C7.427,586.669 8.027,585.269 8.027,583.769C8.027,582.269 7.427,581.069 6.427,579.969C5.327,578.969 4.027,578.369 2.527,578.369C1.027,578.369 -0.273,578.969 -1.373,579.969C-2.373,581.069 -2.873,582.269 -2.873,583.769C-2.873,585.269 -2.373,586.669 -1.373,587.669M13.827,593.469C12.827,593.169 11.827,592.969 10.827,592.669C8.427,592.269 5.927,592.069 3.227,592.069C-7.173,592.069 -16.073,595.669 -23.373,603.069C-23.673,603.269 -23.873,603.569 -24.073,603.669C-23.773,602.669 -22.973,600.469 -21.973,596.869C-21.473,595.069 -20.473,592.669 -18.973,589.669C-18.173,588.069 -16.873,585.669 -15.273,582.669C-13.473,579.169 -10.473,574.269 -6.373,568.269C-4.073,564.669 -2.673,561.269 -1.873,558.269L-1.873,558.069C-1.573,557.169 -1.373,556.469 -1.273,555.669C0.127,556.269 1.527,557.069 2.927,558.169C3.827,558.769 4.627,559.469 5.227,560.169C5.927,560.969 6.527,561.769 7.027,562.669C7.627,563.969 8.427,565.669 9.227,567.969C10.127,570.269 10.827,572.069 11.427,573.169C12.927,576.169 13.727,577.869 14.127,578.469C15.227,580.369 16.627,582.069 18.427,583.569C18.427,583.569 18.527,583.669 18.627,583.669L18.927,583.869C19.527,584.269 20.127,584.669 20.727,585.169C21.027,585.269 21.727,585.669 22.927,586.169C23.927,586.969 25.127,587.669 26.327,588.569C30.127,591.069 32.227,593.069 32.827,594.669C33.027,595.169 33.527,596.269 34.227,597.969C34.727,599.169 35.127,600.069 35.427,600.769C34.127,599.869 32.527,598.969 30.627,598.069C29.427,597.569 28.127,596.969 26.927,596.469L13.827,593.469Z" style="fill:rgb(22,147,0);fill-rule:nonzero;"/>
            </g>
            <g id="g3131">
                <path id="path3133" d="M2.527,589.269C1.027,589.269 -0.273,588.669 -1.373,587.669C-2.373,586.669 -2.873,585.269 -2.873,583.769C-2.873,582.269 -2.373,581.069 -1.373,579.969C-0.273,578.969 1.027,578.369 2.527,578.369C4.027,578.369 5.327,578.969 6.427,579.969C7.427,581.069 8.027,582.269 8.027,583.769C8.027,585.269 7.427,586.669 6.427,587.669C5.327,588.669 4.027,589.269 2.527,589.269" style="fill:rgb(19,193,0);fill-rule:nonzero;"/>
            </g>
            <g id="g3135">
                <path id="path3137" d="M4.527,572.269C3.927,572.969 3.027,573.269 2.127,573.269C1.127,573.269 0.227,572.969 -0.373,572.269C-0.973,571.669 -1.373,570.769 -1.373,569.869C-1.373,568.969 -0.973,568.069 -0.373,567.469C0.227,566.769 1.127,566.469 2.127,566.469C3.027,566.469 3.927,566.769 4.527,567.469C5.127,568.069 5.527,568.969 5.527,569.869C5.527,570.769 5.127,571.669 4.527,572.269" style="fill:rgb(19,193,0);fill-rule:nonzero;"/>
            </g>
            <g id="g3139">
                <path id="path3141" d="M-27.373,534.569C-34.073,537.869 -38.973,540.969 -42.173,543.769C-44.473,545.769 -46.473,547.869 -47.973,549.769C-50.573,553.169 -52.573,555.569 -53.873,556.769C-58.273,562.569 -61.373,567.269 -63.073,570.969C-69.573,584.169 -78.973,592.769 -91.273,596.569C-95.073,597.569 -99.173,598.069 -103.373,598.069C-104.973,598.069 -106.573,597.869 -108.273,597.469C-110.573,597.169 -114.573,595.469 -120.473,592.369C-122.773,591.169 -124.873,589.669 -126.873,587.769C-127.073,587.569 -128.573,585.969 -131.273,583.069C-132.973,581.169 -134.573,578.169 -136.073,573.869C-137.473,569.769 -138.273,566.469 -138.273,563.769C-138.273,560.269 -137.873,557.069 -137.073,554.069C-136.873,553.269 -136.773,552.669 -136.473,551.969C-136.073,550.869 -135.573,549.269 -134.973,547.169C-134.873,546.269 -134.773,545.569 -134.373,545.169C-134.373,544.769 -134.273,544.569 -134.173,544.169C-133.873,543.069 -133.473,541.969 -132.973,540.969C-135.973,556.169 -132.573,569.069 -122.973,579.469C-121.373,580.769 -119.773,582.069 -117.973,583.169C-114.973,585.069 -112.073,586.269 -109.373,587.069C-98.873,589.369 -91.373,584.869 -87.273,573.569C-86.573,572.269 -85.973,570.869 -85.473,569.469C-84.873,567.969 -84.273,566.069 -83.473,563.669C-83.073,562.969 -82.773,562.169 -82.373,561.369C-82.073,560.769 -81.873,560.169 -81.673,559.569C-81.573,559.269 -81.473,559.069 -81.373,558.769C-81.273,558.269 -81.073,557.769 -80.873,557.169C-80.773,557.169 -80.773,557.169 -80.673,557.069C-79.373,553.669 -77.873,550.469 -76.373,547.569C-73.773,542.369 -71.373,538.569 -68.973,535.869C-67.373,537.069 -65.673,538.069 -63.773,538.769C-53.873,541.669 -44.373,539.769 -35.173,533.169C-32.273,531.269 -29.773,529.969 -27.573,529.169C-23.773,527.969 -18.673,527.269 -12.373,527.269C-8.373,527.269 -4.973,527.569 -2.373,528.169C-2.373,528.469 -3.373,528.569 -5.373,528.569C-7.473,528.469 -9.973,528.669 -12.873,529.069C-15.873,529.469 -20.773,531.269 -27.373,534.569" style="fill:rgb(22,147,0);fill-rule:nonzero;"/>
            </g>
            <g id="g3143">
                <path id="path3145" d="M226.327,503.069C226.427,502.969 226.427,502.869 226.427,502.769L226.427,502.869C226.427,502.969 226.427,502.969 226.327,503.069" style="fill:rgb(89,160,86);fill-rule:nonzero;"/>
            </g>
            <g id="g3147">
                <path id="path3149" d="M182.627,443.869C182.627,443.969 182.627,444.169 182.727,444.369C182.627,444.169 182.627,444.169 182.627,443.969L182.627,443.869Z" style="fill:rgb(89,160,86);fill-rule:nonzero;"/>
            </g>
            <g id="g3151">
                <path id="path3153" d="M-118.473,503.069C-118.573,502.969 -118.573,502.969 -118.573,502.869L-118.573,502.769C-118.573,502.869 -118.573,502.969 -118.473,503.069" style="fill:rgb(89,160,86);fill-rule:nonzero;"/>
            </g>
            <g id="g3155">
            </g>
            <g id="g3159">
                <path id="path3161" d="M12.427,398.869C12.427,398.769 12.327,398.469 12.227,398.369C12.627,398.769 13.127,398.969 13.427,399.369C13.127,399.169 12.727,398.969 12.427,398.869" style="fill:rgb(89,160,86);fill-rule:nonzero;"/>
            </g>
            <g id="g3163">
                <path id="path3165" d="M16.727,402.469C16.727,402.669 16.927,402.769 17.027,402.869L16.827,402.869C16.727,402.769 16.727,402.669 16.727,402.469" style="fill:rgb(89,160,86);fill-rule:nonzero;"/>
            </g>
            <g id="g3167">
                <path id="path3169" d="M95.427,398.869C95.027,398.969 94.627,399.169 94.427,399.369C94.727,398.969 95.127,398.769 95.527,398.369C95.527,398.469 95.427,398.769 95.427,398.869" style="fill:rgb(89,160,86);fill-rule:nonzero;"/>
            </g>
            <g id="g3171">
                <path id="path3173" d="M91.027,402.869L90.827,402.869C90.927,402.769 91.027,402.669 91.127,402.469C91.127,402.669 91.027,402.769 91.027,402.869" style="fill:rgb(89,160,86);fill-rule:nonzero;"/>
            </g>
            <g id="g3175">
                <g id="g3183">
                    <g id="g3185">
                        <clipPath id="_clip2">
                            <rect x="-6.473" y="402.968" width="133" height="134.101"/>
                        </clipPath>
                        <g clip-path="url(#_clip2)">
                            <g opacity="0.7">
                                <g id="g3187">
                                    <path id="path3189" d="M107.327,502.969C107.427,502.969 107.527,502.969 107.627,503.069L108.127,503.069C108.427,502.969 108.627,502.969 108.627,502.869L110.927,502.869C112.927,503.069 114.727,503.169 116.227,503.569L116.527,503.569C113.727,507.769 110.427,511.769 106.627,515.669C92.427,529.869 75.127,537.069 55.027,537.069C34.927,537.069 17.627,529.869 3.427,515.669C-0.373,511.769 -3.773,507.769 -6.473,503.569C-5.373,503.169 -4.373,503.069 -3.573,503.169L-3.073,503.169C-2.873,503.069 -2.573,503.069 -2.373,503.069L0.227,503.069C0.327,502.969 0.427,502.969 0.527,502.969C1.827,503.169 3.027,503.269 4.127,503.469C4.227,503.669 4.527,503.869 4.627,504.169C12.127,513.769 18.427,519.869 23.627,522.469C20.427,516.869 17.627,511.369 15.527,505.969C16.727,506.269 17.627,506.569 18.227,506.669C21.127,507.669 24.427,509.169 28.127,510.969C28.527,511.069 29.927,512.069 32.227,513.769C32.227,513.569 32.227,513.269 32.127,513.069L32.127,512.169L32.027,512.169C31.827,511.569 31.527,510.769 31.027,509.969C30.427,509.069 30.027,508.269 29.727,507.969C28.627,506.169 26.827,503.469 24.227,499.669C22.627,497.269 20.027,494.569 16.427,491.469L16.227,491.269C16.027,491.169 15.627,490.969 15.427,490.769C13.727,489.569 12.027,488.469 10.227,487.569C9.427,482.569 9.027,477.569 9.027,472.569C9.327,472.469 9.627,472.369 9.927,472.169C11.727,471.369 16.127,469.669 22.927,466.869C24.727,466.169 26.227,465.369 27.527,464.669C27.727,464.669 28.027,464.569 28.227,464.469C29.227,463.869 30.327,463.269 31.527,462.669C33.227,461.669 35.127,460.169 37.027,458.269L37.127,458.169L25.027,458.169L23.527,457.969L19.527,457.969C16.327,457.869 13.427,457.569 10.727,457.169C11.627,453.269 12.727,449.369 14.227,445.369C21.827,425.869 36.127,414.669 57.127,411.769C57.427,411.669 57.627,411.669 57.927,411.669C60.927,411.269 64.127,410.969 67.627,410.869L69.427,410.869C75.027,410.969 81.027,411.469 87.427,412.369C85.427,411.169 83.527,409.869 81.727,408.769C82.927,408.469 84.127,408.169 85.227,407.769C89.827,406.369 93.127,404.769 95.227,402.969C96.027,403.469 96.827,404.069 97.627,404.669C100.727,406.869 103.727,409.469 106.627,412.369C117.127,422.869 123.627,434.869 126.527,448.469C124.527,449.469 122.127,450.569 119.527,451.869C118.927,452.169 118.227,452.469 117.427,452.869C116.227,453.169 115.027,453.669 113.627,454.069C111.027,454.769 107.927,455.469 104.527,456.069C104.527,456.169 104.427,456.169 104.227,456.169C103.727,456.369 102.627,456.669 100.827,457.069L98.427,457.069C95.327,457.569 92.027,457.869 88.327,457.969L84.327,457.969L82.827,458.169L70.627,458.169L70.727,458.269C72.727,460.169 74.627,461.669 76.327,462.669C77.527,463.269 78.527,463.869 79.627,464.469C79.827,464.569 80.127,464.669 80.327,464.669C81.627,465.369 83.127,466.169 84.927,466.869C91.627,469.669 96.027,471.369 97.927,472.169C100.927,473.569 104.927,474.969 109.927,476.569C114.227,477.669 117.127,478.369 118.527,478.669C119.027,478.769 119.427,478.869 119.727,478.969C119.627,478.969 119.527,478.969 119.427,479.069C116.627,479.869 114.527,480.669 113.127,481.269C112.427,481.569 111.627,481.769 110.927,482.069C107.327,483.269 103.727,484.769 100.127,486.269C97.427,487.569 94.827,489.069 92.427,490.769C92.127,490.969 91.827,491.169 91.527,491.269L91.427,491.469C87.827,494.569 85.227,497.269 83.627,499.669C81.027,503.469 79.127,506.169 78.127,507.969C77.827,508.269 77.427,509.069 76.827,509.969C76.327,510.769 76.027,511.569 75.727,512.169C75.727,512.469 75.627,512.769 75.627,513.069C75.627,513.269 75.627,513.569 75.527,513.769C77.927,512.069 79.327,511.069 79.627,510.969C83.427,509.169 86.727,507.669 89.627,506.669C91.027,506.169 94.927,505.169 101.127,503.769C102.627,503.569 104.727,503.269 107.327,502.969" style="fill:rgb(227,239,248);fill-rule:nonzero;"/>
                                </g>
                            </g>
                        </g>
                    </g>
                </g>
            </g>
            <g id="g3191">
                <g id="g3199">
                    <g id="g3201">
                        <clipPath id="_clip3">
                            <rect x="4.127" y="503.468" width="19.5" height="19"/>
                        </clipPath>
                        <g clip-path="url(#_clip3)">
                            <g opacity="0.7">
                                <g id="g3203">
                                    <path id="path3205" d="M4.627,504.169C4.527,503.869 4.227,503.669 4.127,503.469C5.027,503.569 5.927,503.669 6.627,503.769C10.527,504.669 13.527,505.369 15.527,505.969C17.627,511.369 20.427,516.869 23.627,522.469C18.427,519.869 12.127,513.769 4.627,504.169" style="fill:rgb(186,203,230);fill-rule:nonzero;"/>
                                </g>
                            </g>
                        </g>
                    </g>
                </g>
            </g>
            <g id="g3207">
                <g id="g3215">
                    <g id="g3217">
                        <clipPath id="_clip4">
                            <rect x="-5.773" y="472.569" width="16" height="15"/>
                        </clipPath>
                        <g clip-path="url(#_clip4)">
                            <g opacity="0.7">
                                <g id="g3219">
                                    <path id="path3221" d="M10.227,487.569C9.427,487.069 8.627,486.669 7.727,486.269C5.227,485.269 2.827,484.269 0.427,483.269C-0.173,482.869 -1.073,482.469 -2.473,482.069C-2.573,481.969 -3.473,481.769 -5.073,481.369C-5.373,480.169 -5.473,478.769 -5.773,477.469C-4.673,477.169 -3.473,476.869 -2.073,476.569C2.527,475.069 6.127,473.769 9.027,472.569C9.027,477.569 9.427,482.569 10.227,487.569" style="fill:rgb(186,203,230);fill-rule:nonzero;"/>
                                </g>
                            </g>
                        </g>
                    </g>
                </g>
            </g>
            <g id="g3223">
                <g id="g3231">
                    <g id="g3233">
                        <clipPath id="_clip5">
                            <rect x="-13.373" y="477.468" width="8.3" height="3.9"/>
                        </clipPath>
                        <g clip-path="url(#_clip5)">
                            <g opacity="0.7">
                                <g id="g3235">
                                    <path id="path3237" d="M-5.773,477.469C-5.473,478.769 -5.373,480.169 -5.073,481.369C-5.273,481.269 -5.473,481.269 -5.673,481.169C-7.273,480.669 -8.473,480.369 -9.473,480.169C-10.173,479.969 -10.873,479.669 -11.873,479.369C-12.373,479.169 -12.873,478.969 -13.373,478.769L-13.073,478.769C-12.573,479.069 -11.773,478.969 -10.773,478.669C-9.773,478.469 -8.073,478.069 -5.773,477.469" style="fill:rgb(227,239,248);fill-rule:nonzero;"/>
                                </g>
                            </g>
                        </g>
                    </g>
                </g>
            </g>
            <g id="g3239">
                <g id="g3247">
                    <g id="g3249">
                        <clipPath id="_clip6">
                            <rect x="-16.573" y="403.069" width="44.9" height="51"/>
                        </clipPath>
                        <g clip-path="url(#_clip6)">
                            <g opacity="0.7">
                                <g id="g3251">
                                    <path id="path3253" d="M-9.573,452.869C-10.373,452.469 -11.073,452.169 -11.773,451.869C-13.473,450.969 -15.173,450.169 -16.573,449.469C-13.973,435.369 -7.273,423.069 3.427,412.369C6.527,409.269 9.827,406.369 13.227,403.969C13.327,403.869 13.427,403.869 13.427,403.869C13.727,403.669 14.027,403.469 14.327,403.269L14.427,403.269C14.427,403.169 14.527,403.169 14.627,403.069C16.627,404.869 20.027,406.369 24.527,407.769C25.727,408.169 27.027,408.469 28.327,408.869C27.927,409.169 27.527,409.369 27.127,409.769C27.027,409.769 26.927,409.669 26.727,409.669C26.627,409.769 26.427,409.869 26.227,409.869C20.927,412.769 16.027,416.369 11.427,421.069C1.927,430.569 -3.873,441.469 -5.773,454.069L-5.873,454.069C-7.273,453.669 -8.473,453.169 -9.573,452.869" style="fill:rgb(227,239,248);fill-rule:nonzero;"/>
                                </g>
                            </g>
                        </g>
                    </g>
                </g>
            </g>
            <g id="g3255">
                <g id="g3263">
                    <g id="g3265">
                        <clipPath id="_clip7">
                            <rect x="-5.773" y="408.868" width="63.7" height="48.3"/>
                        </clipPath>
                        <g clip-path="url(#_clip7)">
                            <g opacity="0.7">
                                <g id="g3267">
                                    <path id="path3269" d="M3.227,456.069C-0.073,455.469 -3.073,454.769 -5.773,454.069C-3.873,441.469 1.927,430.569 11.427,421.069C16.027,416.369 20.927,412.769 26.227,409.869C26.427,409.869 26.627,409.769 26.727,409.669C26.927,409.669 27.027,409.769 27.127,409.769C27.527,409.369 27.927,409.169 28.327,408.869C32.227,409.769 36.527,410.469 41.027,410.969C45.427,411.369 50.027,411.669 54.927,411.669L57.927,411.669C57.627,411.669 57.427,411.669 57.127,411.769C36.127,414.669 21.827,425.869 14.227,445.369C12.727,449.369 11.627,453.269 10.727,457.169C10.327,457.169 9.927,457.169 9.427,457.069L7.027,457.069C5.227,456.669 4.127,456.369 3.527,456.169C3.427,456.169 3.327,456.169 3.227,456.069" style="fill:rgb(186,203,230);fill-rule:nonzero;"/>
                                </g>
                            </g>
                        </g>
                    </g>
                </g>
            </g>
            <g id="g3271">
                <path id="path3273" d="M18.127,400.869L16.727,401.669C16.527,401.869 16.127,401.969 15.927,402.169C15.627,402.369 15.427,402.469 15.127,402.669C15.027,402.869 14.727,402.869 14.627,403.069C13.827,402.369 13.227,401.769 12.727,401.069C12.127,400.169 11.927,399.169 11.927,398.169L11.927,398.069C11.927,397.269 12.127,396.369 12.627,395.469C12.627,395.269 12.627,394.969 12.727,394.769C12.727,394.869 12.927,394.969 12.927,395.069C13.127,394.669 13.527,394.269 13.927,393.869C15.227,392.669 17.227,391.369 19.927,390.369C21.227,389.769 22.727,389.269 24.527,388.669C28.527,387.369 32.927,386.369 37.727,385.769C43.427,385.169 49.627,384.869 56.127,384.869C59.627,384.869 62.927,384.969 66.127,385.169C73.227,385.669 79.627,386.869 85.227,388.669C86.627,389.169 87.927,389.469 89.127,389.969L89.027,389.969C93.127,391.869 95.627,393.469 96.627,394.769C96.727,394.869 96.827,394.969 96.927,395.069C97.127,395.469 97.427,395.869 97.627,396.369C97.827,396.869 97.927,397.469 97.927,398.169C97.927,399.869 97.027,401.469 95.227,402.969C94.727,402.669 94.227,402.369 93.827,401.969C93.627,401.869 93.527,401.869 93.427,401.769L93.227,401.669C93.127,401.569 92.927,401.469 92.727,401.369C92.127,400.869 91.527,400.469 90.827,400.169L90.127,399.769L88.827,399.069L88.727,398.969C88.327,398.869 87.927,398.669 87.527,398.369C87.427,398.369 87.127,398.269 87.027,398.169C86.927,398.069 86.627,397.969 86.527,397.869C84.927,397.169 83.327,396.469 81.727,395.869C63.427,390.369 45.627,390.369 28.327,395.869C27.327,396.269 26.327,396.669 25.327,397.069C23.527,397.869 21.727,398.869 20.027,399.769C19.927,399.869 19.927,399.869 19.827,399.869C19.227,400.169 18.627,400.469 18.127,400.869" style="fill:rgb(255,237,0);fill-rule:nonzero;"/>
            </g>
            <g id="g3275">
                <path id="path3277" d="M16.727,401.669L18.127,400.869C18.627,400.469 19.227,400.169 19.827,399.869C19.927,399.869 19.927,399.869 20.027,399.769C21.727,398.869 23.527,397.869 25.327,397.069C26.327,396.669 27.327,396.269 28.327,395.869C45.627,390.369 63.427,390.369 81.727,395.869C83.327,396.469 84.927,397.169 86.527,397.869C86.627,397.969 86.927,398.069 87.027,398.169C87.127,398.269 87.427,398.369 87.527,398.369C87.927,398.669 88.327,398.869 88.727,398.969L88.827,399.069L90.127,399.769L90.827,400.169C91.527,400.469 92.127,400.869 92.727,401.369C92.927,401.469 93.127,401.569 93.227,401.669L93.427,401.769C93.527,401.869 93.627,401.869 93.827,401.969C94.227,402.369 94.727,402.669 95.227,402.969C93.127,404.769 89.827,406.369 85.227,407.769C84.127,408.169 82.927,408.469 81.727,408.769C80.427,407.869 79.027,407.269 77.527,406.869C77.727,406.969 78.027,407.069 78.127,407.169C75.627,406.169 73.127,405.269 70.627,404.569C59.927,401.669 49.427,401.669 39.127,404.569C35.727,405.469 32.427,406.869 29.127,408.369C28.927,408.469 28.627,408.669 28.427,408.769C28.427,408.869 28.427,408.869 28.327,408.869C27.027,408.469 25.727,408.169 24.527,407.769C20.027,406.369 16.627,404.869 14.627,403.069C14.727,402.869 15.027,402.869 15.127,402.669C15.427,402.469 15.627,402.369 15.927,402.169C16.127,401.969 16.527,401.869 16.727,401.669" style="fill:rgb(242,224,41);fill-rule:nonzero;"/>
            </g>
            <g id="g3279">
                <path id="path3281" d="M90.027,390.169L90.027,390.269C90.827,390.369 90.927,390.369 90.027,390.169M13.927,393.869C15.527,391.769 15.727,389.469 14.527,387.169C16.127,385.869 18.527,384.569 21.627,383.369C22.027,383.669 22.327,383.869 22.627,383.969L26.527,386.869L25.227,383.969C25.027,383.469 24.727,382.969 24.527,382.469C32.927,379.769 43.027,378.469 54.927,378.469C66.027,378.469 75.627,379.669 83.627,381.969C83.227,382.669 82.927,383.269 82.627,383.969L81.227,386.869L85.127,383.969C85.727,383.669 86.427,383.369 87.027,382.969C90.427,384.169 93.027,385.469 94.927,386.869C94.027,389.369 94.627,391.969 96.627,394.769C95.627,393.469 93.127,391.869 89.027,389.969L89.127,389.969L89.027,389.969L89.127,389.969C87.927,389.469 86.627,389.169 85.227,388.669C79.627,386.869 73.227,385.669 66.127,385.169C62.927,384.969 59.627,384.869 56.127,384.869C49.627,384.869 43.427,385.169 37.727,385.769C32.927,386.369 28.527,387.369 24.527,388.669C22.727,389.269 21.227,389.769 19.927,390.369C17.227,391.369 15.227,392.669 13.927,393.869" style="fill:rgb(227,211,60);fill-rule:nonzero;"/>
            </g>
            <g id="g3283">
                <path id="path3285" d="M90.027,390.269L90.027,390.169C90.927,390.369 90.827,390.369 90.027,390.269" style="fill:rgb(255,237,0);fill-rule:nonzero;"/>
            </g>
            <g id="g3287">
                <path id="path3289" d="M11.927,382.369L11.927,382.269C11.927,381.269 12.227,380.369 12.727,379.469C15.427,380.469 18.427,381.869 21.627,383.369C18.527,384.569 16.127,385.869 14.527,387.169C12.727,385.769 11.927,384.169 11.927,382.369" style="fill:rgb(255,237,0);fill-rule:nonzero;"/>
            </g>
            <g id="g3291">
                <path id="path3293" d="M24.527,382.469C23.027,379.669 21.227,376.969 19.427,374.769C20.927,374.069 22.627,373.469 24.527,372.869C32.927,370.269 43.027,368.869 54.927,368.869C66.727,368.869 76.927,370.269 85.227,372.869C86.627,373.269 87.727,373.669 88.927,374.169C87.027,376.469 85.127,379.069 83.627,381.969C75.627,379.669 66.027,378.469 54.927,378.469C43.027,378.469 32.927,379.769 24.527,382.469" style="fill:rgb(255,237,0);fill-rule:nonzero;"/>
            </g>
            <g id="g3295">
                <g id="g3303">
                    <g id="g3305">
                        <clipPath id="_clip8">
                            <rect x="28.327" y="402.393" width="53.4" height="9.275"/>
                        </clipPath>
                        <g clip-path="url(#_clip8)">
                            <g opacity="0.7">
                                <g id="g3307">
                                    <path id="path3309" d="M69.427,410.869L67.627,410.869C64.127,410.969 60.927,411.269 57.927,411.669L54.927,411.669C50.027,411.669 45.427,411.369 41.027,410.969C36.527,410.469 32.227,409.769 28.327,408.869C28.427,408.869 28.427,408.869 28.427,408.769C28.627,408.669 28.927,408.469 29.127,408.369C32.427,406.869 35.727,405.469 39.127,404.569C49.427,401.669 59.927,401.669 70.627,404.569C73.127,405.269 75.627,406.169 78.127,407.169C78.027,407.069 77.727,406.969 77.527,406.869C79.027,407.269 80.427,407.869 81.727,408.769C77.927,409.769 73.827,410.469 69.427,410.869" style="fill:rgb(142,175,216);fill-rule:nonzero;"/>
                                </g>
                            </g>
                        </g>
                    </g>
                </g>
            </g>
            <g id="g3311">
            </g>
            <g id="g3315">
                <path id="path3317" d="M95.227,387.169C95.127,387.069 95.027,386.969 94.927,386.869C93.027,385.469 90.427,384.169 87.027,382.969C90.627,381.269 93.727,379.969 96.627,378.969C97.527,379.969 97.927,381.169 97.927,382.369L97.927,382.869C97.727,384.369 96.927,385.869 95.227,387.169" style="fill:rgb(255,237,0);fill-rule:nonzero;"/>
            </g>
            <g id="g3319">
                <g id="g3327">
                    <g id="g3329">
                        <clipPath id="_clip9">
                            <rect x="69.427" y="408.768" width="18" height="3.6"/>
                        </clipPath>
                        <g clip-path="url(#_clip9)">
                            <g opacity="0.7">
                                <g id="g3331">
                                    <path id="path3333" d="M69.427,410.869C73.827,410.469 77.927,409.769 81.727,408.769C83.527,409.869 85.427,411.169 87.427,412.369C81.027,411.469 75.027,410.969 69.427,410.869" style="fill:rgb(186,203,230);fill-rule:nonzero;"/>
                                </g>
                            </g>
                        </g>
                    </g>
                </g>
            </g>
            <g id="g3335">
                <path id="path3337" d="M142.627,478.469L143.727,478.469L143.627,478.569C143.327,478.569 143.027,478.569 142.627,478.469" style="fill:rgb(103,140,93);fill-rule:nonzero;"/>
            </g>
            <g id="g3339">
                <path id="path3341" d="M-46.673,512.069C-47.173,512.169 -47.573,512.169 -47.973,512.269C-47.473,512.169 -46.973,512.069 -46.573,511.969L-46.373,511.869C-46.373,511.969 -46.473,511.969 -46.473,511.969C-46.573,512.069 -46.573,512.069 -46.673,512.069" style="fill:rgb(89,160,86);fill-rule:nonzero;"/>
            </g>
            <g id="g3343">
                <path id="path3345" d="M-35.873,478.469L-34.873,478.469C-35.173,478.569 -35.473,478.569 -35.873,478.569L-35.873,478.469Z" style="fill:rgb(103,140,93);fill-rule:nonzero;"/>
            </g>
        </g>
    </g>
    <g id="rahmen" transform="matrix(5.63961,0,0,5.18485,-1683.12,-3418.41)">
        <rect x="303.683" y="668.418" width="534.046" height="551.273" style="fill:none;stroke:black;stroke-width:1.15px;"/>
    </g>
    <g transform="matrix(1.7604,0,0,1.7604,-639.418,-1674.62)">
        <text x="740.26px" y="2394.49px" style="font-family:'Arvo-Bold', 'Arvo';font-weight:700;font-size:195.735px;fill:white;">OctoPrint</text>
    </g>
    <defs>
        <radialGradient id="_Radial1" cx="0" cy="0" r="1" gradientUnits="userSpaceOnUse" gradientTransform="matrix(3411,0,0,3100.24,-85.654,1512.22)"><stop offset="0" style="stop-color:rgb(52,138,3);stop-opacity:1"/><stop offset="1" style="stop-color:rgb(19,61,0);stop-opacity:1"/></radialGradient>
    </defs>
</svg>
